<svg width="130" height="130" viewBox="0 0 130 130" fill="none" xmlns="http://www.w3.org/2000/svg">
<circle opacity="0.1" cx="65" cy="65" r="65" fill="#567EBB"/>
<circle cx="65" cy="65" r="45" fill="#567EBB"/>
<path d="M64.9998 51.6667C57.6532 51.6667 51.6665 57.6533 51.6665 65C51.6665 72.3467 57.6532 78.3333 64.9998 78.3333C72.3465 78.3333 78.3332 72.3467 78.3332 65C78.3332 57.6533 72.3465 51.6667 64.9998 51.6667ZM71.3732 61.9333L63.8132 69.4933C63.6265 69.68 63.3732 69.7867 63.1065 69.7867C62.8398 69.7867 62.5865 69.68 62.3998 69.4933L58.6265 65.72C58.2398 65.3333 58.2398 64.6933 58.6265 64.3067C59.0132 63.92 59.6532 63.92 60.0398 64.3067L63.1065 67.3733L69.9598 60.52C70.3465 60.1333 70.9865 60.1333 71.3732 60.52C71.7598 60.9067 71.7598 61.5333 71.3732 61.9333Z" fill="white"/>
</svg>
