<svg width="300" height="311" viewBox="0 0 300 311" fill="none" xmlns="http://www.w3.org/2000/svg">
<path d="M277.297 61.9073C278.963 61.1717 280.376 59.9638 281.362 58.4332C282.349 56.9026 282.865 55.1165 282.846 53.2957C282.846 48.1525 278.972 43.9693 274.151 43.9483C269.33 43.9272 265.406 48.0754 265.385 53.2186C265.351 55.0544 265.861 56.8591 266.851 58.4054C267.841 59.9517 269.267 61.1702 270.948 61.9073C257.516 63.9324 258.126 78.5351 258.126 78.5351L289.889 78.6822C289.889 78.6822 290.617 63.9184 277.297 61.9073Z" fill="#F5F5F5"/>
<path d="M89.6132 7.34339L68.8513 0L48.2926 7.24529C45.672 8.46452 43.3877 9.19325 43.3877 11.6037V23.5928C43.3619 32.0131 45.7103 40.2702 50.1635 47.4167C54.6456 54.701 61.2467 60.4415 69.0825 63.8693C77.491 61.1786 83.7553 54.0174 87.5952 47.8862C92.0431 40.7377 94.3888 32.4815 94.364 24.0622V13.2784C94.336 9.84491 92.4861 8.17022 89.6132 7.34339Z" fill="#F5F5F5"/>
<path d="M75.7249 26.6969C75.7299 25.6269 75.436 24.5769 74.8764 23.665C74.3168 22.7531 73.5137 22.0155 72.5576 21.5354C71.6014 21.0553 70.5302 20.8516 69.4646 20.9475C68.3989 21.0433 67.3812 21.4348 66.5261 22.0778C65.6709 22.7208 65.0123 23.5898 64.6244 24.5869C64.2364 25.584 64.1346 26.6696 64.3304 27.7215C64.5262 28.7734 65.0118 29.7497 65.7324 30.5405C66.4531 31.3313 67.3803 31.9051 68.4095 32.1974V40.7951H71.5487V32.1974C72.7487 31.8602 73.8059 31.1406 74.5597 30.1478C75.3134 29.155 75.7226 27.9434 75.7249 26.6969Z" fill="#EBEBEB"/>
<path d="M266.135 118.454L269.673 120.374L268.083 123.037L264.509 120.935L264.579 124.866H261.524V120.9L257.985 123.016L256.423 120.353L259.961 118.433L256.423 116.485L257.985 113.823L261.552 116.009V112.043H264.607L264.537 116.009L268.111 113.865L269.701 116.527L266.135 118.454Z" fill="#E0E0E0"/>
<path d="M280.878 118.454L284.416 120.374L282.825 123.037L279.252 120.935L279.322 124.866H276.267L276.302 120.9L272.728 123.044L271.166 120.381L274.704 118.461L271.166 116.513L272.728 113.851L276.302 115.995L276.267 112.029H279.322L279.252 115.995L282.825 113.851L284.416 116.513L280.878 118.454Z" fill="#E0E0E0"/>
<path d="M295.62 118.454L299.166 120.374L297.575 123.037L294.002 120.935L294.065 124.866H291.01L291.045 120.9L287.471 123.044L285.909 120.381L289.454 118.461L285.937 116.506L287.499 113.844L291.073 115.988L291.038 112.022H294.093L294.03 115.988L297.603 113.844L299.194 116.506L295.62 118.454Z" fill="#E0E0E0"/>
<path d="M145.613 286.182V307.946H177.439H212.545V286.182H145.613Z" fill="#F5F5F5"/>
<path d="M142.803 280.093V286.182H214.885V280.093H177.439H142.803Z" fill="#EBEBEB"/>
<path d="M178.841 307.946H212.545V286.182H214.885V280.093H177.439V285.615L178.841 307.946Z" fill="#EBEBEB"/>
<path d="M168.548 289.686H154.975V292.965H168.548V289.686Z" fill="#E0E0E0"/>
<path d="M170.657 297.064H153.223V303.98H170.657V297.064Z" fill="white"/>
<path d="M155.907 258.357V280.121H187.74H222.845V258.357H155.907Z" fill="#F5F5F5"/>
<path d="M153.097 252.268V258.357H225.185V252.268H187.74H153.097Z" fill="#EBEBEB"/>
<path d="M189.141 280.121H222.845V258.357H225.185V252.268H187.74V257.797L189.141 280.121Z" fill="#EBEBEB"/>
<path d="M178.841 261.868H165.268V265.147H178.841V261.868Z" fill="#E0E0E0"/>
<path d="M180.957 269.239H163.523V276.155H180.957V269.239Z" fill="white"/>
<path d="M300 308.114C300 308.212 232.837 308.296 150.007 308.296C67.1766 308.296 0 308.212 0 308.114C0 308.016 67.1486 307.932 150.007 307.932C232.865 307.932 300 308.002 300 308.114Z" fill="#181214"/>
<path d="M254.258 151.549H149.839C147.37 151.549 145.369 153.55 145.369 156.019V210.072C145.369 212.541 147.37 214.542 149.839 214.542H254.258C256.727 214.542 258.729 212.541 258.729 210.072V156.019C258.729 153.55 256.727 151.549 254.258 151.549Z" fill="white"/>
<path d="M254.265 214.542C254.265 214.542 254.566 214.542 255.141 214.437C255.993 214.253 256.774 213.827 257.39 213.211C257.84 212.757 258.186 212.212 258.406 211.613C258.532 211.267 258.617 210.907 258.658 210.541C258.658 210.163 258.658 209.756 258.658 209.336C258.658 207.654 258.658 205.713 258.658 203.534C258.658 194.796 258.623 182.169 258.602 166.565C258.602 164.61 258.602 162.613 258.602 160.574V157.477C258.602 156.432 258.708 155.374 258.28 154.407C257.985 153.675 257.496 153.037 256.865 152.563C256.234 152.089 255.485 151.796 254.7 151.717C254.181 151.682 253.606 151.717 253.06 151.717H246.298H216.995H149.853C149.138 151.715 148.434 151.893 147.805 152.233C147.176 152.573 146.642 153.065 146.251 153.665C145.854 154.258 145.613 154.943 145.551 155.655C145.516 156.355 145.551 157.126 145.551 157.855V183.767C145.551 189.373 145.551 194.885 145.551 200.304V208.32C145.551 208.978 145.551 209.644 145.551 210.289C145.583 210.919 145.75 211.536 146.041 212.097C146.34 212.647 146.753 213.126 147.254 213.502C147.755 213.878 148.33 214.142 148.942 214.276C149.565 214.376 150.197 214.409 150.827 214.374H178.203H203.737L240.706 214.43L250.755 214.465L240.706 214.5L203.737 214.556H178.203H150.827C150.173 214.59 149.518 214.555 148.872 214.451C148.212 214.308 147.59 214.024 147.05 213.618C146.511 213.211 146.066 212.692 145.747 212.097C145.425 211.495 145.241 210.83 145.207 210.149C145.207 209.448 145.207 208.831 145.207 208.166C145.207 205.524 145.207 202.847 145.207 200.149V183.767C145.207 178.161 145.207 172.451 145.207 166.635V157.876C145.207 157.133 145.207 156.418 145.207 155.648C145.259 154.882 145.5 154.14 145.908 153.49C146.334 152.842 146.911 152.308 147.59 151.934C148.276 151.569 149.04 151.374 149.818 151.366H216.959H246.263H253.025C253.585 151.366 254.118 151.366 254.692 151.366C255.254 151.425 255.801 151.587 256.304 151.843C257.304 152.35 258.088 153.201 258.511 154.239C258.716 154.747 258.825 155.289 258.834 155.837C258.834 156.362 258.834 156.888 258.834 157.413V160.511C258.834 162.547 258.834 164.544 258.834 166.502C258.834 182.106 258.785 194.733 258.771 203.471C258.771 205.65 258.771 207.591 258.771 209.273C258.771 209.693 258.771 210.092 258.771 210.485C258.726 210.859 258.636 211.226 258.504 211.578C258.278 212.187 257.922 212.74 257.46 213.197C256.829 213.817 256.03 214.238 255.162 214.409C254.945 214.449 254.724 214.473 254.503 214.479L254.265 214.542Z" fill="#181214"/>
<path d="M184.867 173.81V174.595H181.588V170.391H184.783V171.176H182.562V172.065H184.524V172.829H182.562V173.81H184.867Z" fill="#181214"/>
<path d="M189.534 170.363V174.567H188.728L186.626 171.995V174.567H185.659V170.363H186.437L188.539 172.934V170.363H189.534Z" fill="#181214"/>
<path d="M191.419 171.161H190.06V170.363H193.752V171.161H192.393V174.595H191.419V171.161Z" fill="#181214"/>
<path d="M197.557 173.81V174.595H194.278V170.391H197.48V171.176H195.252V172.065H197.221V172.829H195.252V173.81H197.557Z" fill="#181214"/>
<path d="M201.04 174.595L200.22 173.418H199.323V174.595H198.349V170.391H200.185C201.313 170.391 202.021 170.972 202.021 171.925C202.029 172.21 201.95 172.491 201.795 172.73C201.64 172.969 201.415 173.155 201.152 173.264L202.098 174.623L201.04 174.595ZM200.122 171.162H199.323V172.633H200.122C200.717 172.633 201.019 172.36 201.019 171.897C201.019 171.435 200.717 171.162 200.122 171.162Z" fill="#181214"/>
<path d="M204.235 172.479C204.262 172.022 204.423 171.584 204.698 171.218C204.973 170.852 205.349 170.575 205.779 170.421C206.21 170.267 206.677 170.244 207.121 170.353C207.565 170.462 207.968 170.699 208.278 171.035L207.647 171.617C207.516 171.462 207.353 171.337 207.169 171.251C206.986 171.165 206.785 171.12 206.582 171.119C206.239 171.144 205.919 171.298 205.685 171.549C205.451 171.801 205.32 172.132 205.32 172.475C205.32 172.819 205.451 173.15 205.685 173.401C205.919 173.653 206.239 173.807 206.582 173.831C206.786 173.834 206.987 173.791 207.172 173.705C207.356 173.619 207.519 173.492 207.647 173.334L208.278 173.915C207.969 174.254 207.568 174.495 207.123 174.606C206.678 174.717 206.211 174.695 205.779 174.541C205.347 174.388 204.97 174.11 204.695 173.743C204.421 173.376 204.26 172.937 204.235 172.479Z" fill="#181214"/>
<path d="M208.586 172.479C208.561 172.015 208.675 171.555 208.915 171.157C209.154 170.759 209.507 170.442 209.929 170.248C210.35 170.053 210.82 169.989 211.278 170.064C211.736 170.139 212.161 170.351 212.498 170.67C212.835 170.989 213.068 171.403 213.168 171.856C213.267 172.31 213.228 172.783 213.056 173.214C212.883 173.645 212.586 174.014 212.201 174.274C211.817 174.534 211.363 174.673 210.899 174.672C210.6 174.689 210.302 174.645 210.021 174.543C209.741 174.44 209.485 174.281 209.268 174.076C209.051 173.87 208.879 173.623 208.762 173.348C208.644 173.073 208.585 172.778 208.586 172.479ZM212.223 172.479C212.217 172.218 212.135 171.965 211.986 171.751C211.837 171.537 211.629 171.372 211.386 171.276C211.144 171.18 210.878 171.157 210.623 171.212C210.368 171.266 210.135 171.394 209.953 171.58C209.77 171.767 209.647 172.003 209.598 172.259C209.549 172.515 209.577 172.78 209.678 173.02C209.779 173.26 209.949 173.466 210.166 173.61C210.383 173.754 210.638 173.831 210.899 173.831C211.076 173.835 211.252 173.803 211.417 173.736C211.581 173.669 211.73 173.569 211.854 173.442C211.978 173.315 212.075 173.165 212.138 172.999C212.202 172.833 212.231 172.656 212.223 172.479Z" fill="#181214"/>
<path d="M213.961 170.363H215.866C216.424 170.363 216.959 170.584 217.353 170.978C217.747 171.373 217.969 171.907 217.969 172.465C217.969 173.022 217.747 173.557 217.353 173.951C216.959 174.345 216.424 174.567 215.866 174.567H213.947L213.961 170.363ZM215.831 173.789C216.179 173.789 216.512 173.651 216.758 173.405C217.004 173.16 217.142 172.826 217.142 172.479C217.142 172.131 217.004 171.798 216.758 171.552C216.512 171.307 216.179 171.168 215.831 171.168H214.942V173.789H215.831Z" fill="#181214"/>
<path d="M222.236 173.81V174.595H218.957V170.391H222.173V171.176H219.931V172.065H221.899V172.829H219.931V173.81H222.236Z" fill="#181214"/>
<path d="M168.793 181.357H158.5C156.971 181.357 155.732 182.596 155.732 184.125V200.15C155.732 201.678 156.971 202.917 158.5 202.917H168.793C170.322 202.917 171.561 201.678 171.561 200.15V184.125C171.561 182.596 170.322 181.357 168.793 181.357Z" fill="#EBEBEB"/>
<path d="M188.56 181.357H178.267C176.738 181.357 175.499 182.596 175.499 184.125V200.15C175.499 201.678 176.738 202.917 178.267 202.917H188.56C190.089 202.917 191.328 201.678 191.328 200.15V184.125C191.328 182.596 190.089 181.357 188.56 181.357Z" fill="#EBEBEB"/>
<path d="M208.327 181.357H198.034C196.505 181.357 195.266 182.596 195.266 184.125V200.15C195.266 201.678 196.505 202.917 198.034 202.917H208.327C209.856 202.917 211.095 201.678 211.095 200.15V184.125C211.095 182.596 209.856 181.357 208.327 181.357Z" fill="#EBEBEB"/>
<path d="M228.087 181.357H217.793C216.265 181.357 215.026 182.596 215.026 184.125V200.15C215.026 201.678 216.265 202.917 217.793 202.917H228.087C229.615 202.917 230.855 201.678 230.855 200.15V184.125C230.855 182.596 229.615 181.357 228.087 181.357Z" fill="#EBEBEB"/>
<path d="M247.854 181.357H237.56C236.032 181.357 234.793 182.596 234.793 184.125V200.15C234.793 201.678 236.032 202.917 237.56 202.917H247.854C249.382 202.917 250.622 201.678 250.622 200.15V184.125C250.622 182.596 249.382 181.357 247.854 181.357Z" fill="#EBEBEB"/>
<path d="M167.097 193.787C167.097 195.322 165.906 196.324 164.295 196.324C162.08 196.324 160.91 194.733 160.91 192.12C160.91 189.275 162.431 187.803 164.652 187.803C165.317 187.773 165.978 187.923 166.565 188.238L166.313 188.728C165.805 188.45 165.23 188.316 164.652 188.343C162.767 188.343 161.527 189.583 161.527 192.028C161.527 192.366 161.55 192.703 161.597 193.038C161.794 192.496 162.163 192.033 162.648 191.721C163.132 191.408 163.706 191.263 164.281 191.307C165.962 191.307 167.097 192.288 167.097 193.787ZM166.481 193.787C166.481 192.589 165.619 191.804 164.196 191.804C163.909 191.772 163.618 191.8 163.342 191.885C163.066 191.971 162.81 192.112 162.591 192.301C162.372 192.49 162.195 192.722 162.069 192.982C161.944 193.243 161.874 193.526 161.863 193.815C161.863 194.803 162.69 195.784 164.267 195.784C164.546 195.815 164.83 195.786 165.098 195.699C165.366 195.613 165.612 195.471 165.821 195.282C166.03 195.094 166.197 194.863 166.311 194.605C166.425 194.348 166.482 194.069 166.481 193.787Z" fill="#567EBB"/>
<path d="M186.647 193.948H184.881V196.282H184.279V193.948H179.479V193.507L184.048 187.866H184.748L180.264 193.409H184.307V191.356H184.895V193.409H186.661L186.647 193.948Z" fill="#567EBB"/>
<path d="M207.031 197.48C204.591 197.723 202.134 197.723 199.694 197.48C202.134 197.237 204.591 197.237 207.031 197.48Z" fill="#567EBB"/>
<path d="M152.565 159.558C153.513 159.558 154.282 158.789 154.282 157.841C154.282 156.893 153.513 156.124 152.565 156.124C151.617 156.124 150.848 156.893 150.848 157.841C150.848 158.789 151.617 159.558 152.565 159.558Z" fill="#181214"/>
<path d="M159.229 157.841C159.229 158.181 159.128 158.513 158.939 158.795C158.751 159.077 158.483 159.297 158.169 159.427C157.855 159.557 157.51 159.591 157.177 159.525C156.844 159.459 156.538 159.295 156.298 159.055C156.058 158.815 155.894 158.509 155.828 158.176C155.762 157.843 155.796 157.498 155.926 157.184C156.056 156.87 156.276 156.602 156.558 156.414C156.84 156.225 157.172 156.124 157.512 156.124C157.967 156.124 158.404 156.305 158.726 156.627C159.048 156.949 159.229 157.386 159.229 157.841Z" fill="#181214"/>
<path d="M162.368 159.558C163.316 159.558 164.084 158.789 164.084 157.841C164.084 156.893 163.316 156.124 162.368 156.124C161.419 156.124 160.651 156.893 160.651 157.841C160.651 158.789 161.419 159.558 162.368 159.558Z" fill="#181214"/>
<path d="M258.904 162.676C258.904 162.774 233.517 162.858 202.217 162.858C170.916 162.858 145.53 162.774 145.53 162.676C145.53 162.578 170.902 162.494 202.217 162.494C233.531 162.494 258.904 162.571 258.904 162.676Z" fill="#181214"/>
<path d="M238.086 13.2081H112.912C110.373 13.2081 108.315 15.266 108.315 17.8047V132.966C108.315 135.504 110.373 137.562 112.912 137.562H238.086C240.624 137.562 242.682 135.504 242.682 132.966V17.8047C242.682 15.266 240.624 13.2081 238.086 13.2081Z" fill="white"/>
<path d="M238.086 137.562H238.415C238.741 137.536 239.062 137.474 239.375 137.38C239.986 137.193 240.551 136.88 241.034 136.461C241.517 136.043 241.906 135.527 242.178 134.949C242.555 134.081 242.705 133.13 242.612 132.188C242.612 131.144 242.612 129.995 242.612 128.755C242.612 126.274 242.612 123.408 242.612 120.185C242.612 107.292 242.577 88.6532 242.549 65.586C242.549 54.0594 242.549 41.4397 242.549 27.8811C242.549 24.499 242.549 21.0585 242.549 17.5597C242.497 16.7042 242.197 15.8823 241.687 15.1934C241.178 14.5045 240.479 13.9781 239.676 13.6777C238.842 13.4138 237.963 13.3185 237.091 13.3975H212.083H112.926C111.874 13.4036 110.858 13.7836 110.06 14.4695C109.236 15.1656 108.697 16.141 108.546 17.2093C108.498 17.7451 108.482 18.2832 108.497 18.8209V61.9634C108.497 78.5491 108.497 94.5462 108.497 109.786C108.497 117.41 108.497 124.835 108.497 132.062C108.497 132.51 108.497 132.973 108.497 133.4C108.538 133.831 108.639 134.253 108.799 134.655C109.123 135.459 109.676 136.151 110.389 136.645C111.095 137.137 111.932 137.411 112.793 137.429H125.763H163.468L218.067 137.492H232.908L218.067 137.527L163.468 137.583H125.763H112.786C111.86 137.56 110.961 137.266 110.2 136.739C109.44 136.211 108.85 135.472 108.504 134.613C108.332 134.182 108.222 133.729 108.175 133.267C108.14 132.791 108.175 132.356 108.175 131.901C108.175 124.674 108.175 117.249 108.175 109.625C108.175 94.385 108.175 78.3879 108.175 61.8022C108.175 53.5058 108.175 45.0717 108.175 36.4997V18.7859C108.156 18.2317 108.174 17.6768 108.231 17.1252C108.385 15.9856 108.954 14.9428 109.829 14.1963C110.688 13.4452 111.785 13.0231 112.926 13.0051H212.083H237.049C237.96 12.9265 238.877 13.0313 239.746 13.3134C240.606 13.635 241.353 14.1986 241.899 14.9359C242.445 15.6733 242.766 16.5529 242.823 17.4686C242.823 20.9721 242.823 24.4196 242.823 27.811C242.823 41.3696 242.823 53.9893 242.823 65.5159C242.823 88.5691 242.781 107.222 242.766 120.115C242.766 123.338 242.766 126.204 242.766 128.685C242.766 129.925 242.766 131.074 242.766 132.118C242.856 133.076 242.696 134.042 242.304 134.921C241.952 135.657 241.41 136.287 240.734 136.744C240.058 137.201 239.272 137.469 238.457 137.52L238.086 137.562Z" fill="#181214"/>
<path d="M118.468 21.8267C118.468 22.2872 118.332 22.7372 118.076 23.1199C117.82 23.5026 117.456 23.8008 117.031 23.9767C116.605 24.1525 116.137 24.1982 115.686 24.1079C115.234 24.0175 114.82 23.7953 114.495 23.4692C114.17 23.1432 113.948 22.728 113.86 22.2763C113.771 21.8246 113.818 21.3566 113.995 20.9316C114.172 20.5067 114.471 20.1438 114.855 19.8891C115.238 19.6343 115.689 19.499 116.149 19.5004C116.454 19.5004 116.756 19.5606 117.038 19.6776C117.32 19.7946 117.576 19.9661 117.792 20.1822C118.007 20.3983 118.178 20.6548 118.294 20.937C118.41 21.2192 118.469 21.5216 118.468 21.8267Z" fill="#181214"/>
<path d="M122.918 24.1461C124.199 24.1461 125.237 23.1077 125.237 21.8268C125.237 20.5458 124.199 19.5074 122.918 19.5074C121.637 19.5074 120.599 20.5458 120.599 21.8268C120.599 23.1077 121.637 24.1461 122.918 24.1461Z" fill="#181214"/>
<path d="M129.701 24.1461C130.982 24.1461 132.02 23.1077 132.02 21.8268C132.02 20.5458 130.982 19.5074 129.701 19.5074C128.42 19.5074 127.382 20.5458 127.382 21.8268C127.382 23.1077 128.42 24.1461 129.701 24.1461Z" fill="#181214"/>
<path d="M242.682 28.4204C242.682 28.5255 212.601 28.6026 175.499 28.6026C138.396 28.6026 108.315 28.5255 108.315 28.4204C108.315 28.3153 138.389 28.2382 175.499 28.2382C212.608 28.2382 242.682 28.3153 242.682 28.4204Z" fill="#181214"/>
<path d="M194.481 75.2626C194.481 75.2626 194.53 75.1855 194.642 75.0453L194.733 74.9262L194.824 74.7651C194.902 74.6347 194.97 74.4989 195.027 74.3587C195.027 74.2816 195.098 74.1975 195.126 74.1064L195.21 73.8121C195.24 73.704 195.264 73.594 195.28 73.4828C195.28 73.3637 195.322 73.2445 195.329 73.1184C195.375 72.5356 195.346 71.9494 195.245 71.3737C194.95 69.7979 194.411 68.2778 193.647 66.8681C192.662 64.9867 191.511 63.1974 190.207 61.5217C188.637 59.4838 186.925 57.5591 185.084 55.7619C182.977 53.6934 180.727 51.7758 178.351 50.0232C177.096 49.0982 175.772 48.2013 174.378 47.3605C172.956 46.492 171.479 45.7172 169.956 45.0412C168.391 44.3267 166.744 43.8089 165.051 43.4996C164.186 43.3455 163.302 43.3242 162.431 43.4365C161.993 43.4987 161.566 43.6213 161.162 43.8009C160.766 43.9954 160.408 44.2587 160.104 44.5787C159.814 44.9143 159.591 45.3019 159.446 45.7208C159.314 46.1433 159.241 46.5818 159.228 47.0241C159.217 47.9037 159.337 48.78 159.586 49.6238C160.088 51.2745 160.794 52.8563 161.688 54.3325C162.53 55.7686 163.466 57.1473 164.491 58.4597C165.486 59.749 166.53 60.9682 167.588 62.1103C169.6 64.2721 171.764 66.2882 174.062 68.1434C176.057 69.7694 178.164 71.2517 180.369 72.5789C182.182 73.6817 184.091 74.6197 186.072 75.3817C187.562 75.976 189.133 76.3398 190.732 76.4608C191.314 76.4895 191.897 76.4495 192.47 76.3417C192.596 76.3417 192.708 76.2786 192.82 76.2506C192.93 76.2218 193.037 76.1867 193.143 76.1455L193.423 76.0263L193.668 75.9002C193.802 75.8277 193.928 75.7432 194.046 75.648L194.194 75.5429L194.306 75.4378C194.432 75.3116 194.502 75.2556 194.502 75.2556L194.313 75.4448L194.201 75.5499L194.06 75.662C193.941 75.7587 193.812 75.8433 193.675 75.9142L193.444 76.0684L193.157 76.1875C193.054 76.2308 192.949 76.266 192.841 76.2926C192.724 76.3327 192.605 76.3655 192.484 76.3907C191.908 76.5087 191.319 76.551 190.732 76.5168C189.129 76.4079 187.552 76.051 186.058 75.4588C184.07 74.6976 182.154 73.7596 180.334 72.656C178.129 71.3285 176.022 69.8463 174.027 68.2205C171.723 66.3676 169.554 64.3514 167.539 62.1874C166.481 61.0453 165.437 59.826 164.435 58.5367C163.413 57.2177 162.477 55.8344 161.632 54.3956C160.737 52.9125 160.031 51.3237 159.53 49.6658C159.275 48.8113 159.152 47.9228 159.165 47.0312C159.18 46.5816 159.256 46.1362 159.39 45.7068C159.549 45.2725 159.786 44.8711 160.09 44.5226C160.401 44.1897 160.772 43.9186 161.183 43.7238C161.596 43.5396 162.032 43.4123 162.48 43.3454C163.363 43.2331 164.258 43.2543 165.135 43.4085C166.84 43.7204 168.499 44.243 170.075 44.9641C171.601 45.641 173.081 46.4181 174.504 47.2904C175.905 48.1313 177.23 49.0282 178.484 49.9601C180.864 51.7158 183.114 53.6407 185.218 55.7199C187.062 57.5201 188.776 59.4496 190.347 61.4937C191.647 63.1741 192.794 64.9681 193.773 66.8541C194.535 68.2713 195.072 69.7984 195.364 71.3807C195.461 71.9616 195.485 72.5526 195.434 73.1394C195.423 73.2597 195.404 73.379 195.378 73.4968C195.367 73.6088 195.343 73.7193 195.308 73.8261L195.224 74.1274C195.194 74.2137 195.159 74.298 195.119 74.3797C195.066 74.5234 194.995 74.66 194.908 74.7861C194.884 74.8429 194.853 74.8969 194.817 74.9472L194.726 75.0664L194.481 75.2626Z" fill="#567EBB"/>
<path d="M200.836 59.9031V59.6368V59.4897C200.836 59.4336 200.836 59.3776 200.801 59.3075C200.777 59.1566 200.737 59.0087 200.682 58.866C200.682 58.789 200.626 58.6979 200.591 58.6138L200.451 58.3335C200.406 58.2319 200.349 58.1356 200.283 58.0462C200.222 57.941 200.155 57.8403 200.08 57.7449C199.731 57.2765 199.321 56.857 198.86 56.4977C197.586 55.5191 196.168 54.7438 194.656 54.1993C192.67 53.4485 190.621 52.8786 188.532 52.4966C185.989 52.0193 183.416 51.7243 180.831 51.6137C177.881 51.47 174.923 51.5332 171.981 51.8029C170.433 51.9501 168.849 52.1673 167.245 52.4686C165.605 52.7642 163.988 53.1692 162.403 53.6808C160.755 54.1798 159.178 54.8862 157.708 55.7829C156.959 56.2423 156.286 56.8142 155.711 57.4786C155.427 57.8156 155.191 58.1906 155.01 58.5928C154.837 59.0013 154.742 59.4386 154.73 59.8821C154.744 60.3246 154.836 60.7612 155.003 61.1714C155.187 61.5721 155.422 61.9468 155.704 62.2855C156.283 62.9504 156.958 63.5244 157.708 63.9882C159.18 64.8809 160.757 65.587 162.403 66.0903C163.99 66.5954 165.607 67.0002 167.245 67.3025C168.849 67.6038 170.433 67.814 171.981 67.9612C174.923 68.2365 177.88 68.3021 180.831 68.1574C183.417 68.054 185.992 67.7731 188.539 67.3165C190.628 66.9345 192.677 66.3647 194.663 65.6138C196.172 65.0637 197.59 64.2889 198.867 63.3155C199.326 62.9543 199.736 62.5351 200.087 62.0683C200.162 61.9704 200.23 61.8674 200.29 61.7599C200.356 61.6706 200.413 61.5743 200.458 61.4727L200.598 61.1994C200.633 61.1083 200.661 61.0242 200.689 60.9401C200.745 60.7977 200.785 60.6497 200.808 60.4987C200.808 60.4356 200.808 60.3796 200.843 60.3235V60.1764V59.9031C200.843 59.9031 200.843 59.9942 200.843 60.1764V60.3235C200.843 60.3796 200.843 60.4356 200.843 60.5057C200.822 60.6564 200.784 60.8044 200.731 60.9471C200.731 61.0312 200.675 61.1153 200.64 61.2064L200.507 61.4867C200.458 61.5883 200.401 61.6866 200.339 61.781C200.277 61.8851 200.209 61.9857 200.136 62.0823C199.788 62.5553 199.377 62.9795 198.917 63.3435C197.644 64.3302 196.226 65.1127 194.712 65.6629C192.725 66.4221 190.673 66.9991 188.581 67.3866C186.036 67.8655 183.46 68.1652 180.873 68.2835C177.92 68.4332 174.961 68.3723 172.016 68.1013C170.461 67.9542 168.87 67.744 167.266 67.4427C165.623 67.1396 164.002 66.7347 162.41 66.2304C160.756 65.7301 159.172 65.0238 157.694 64.1283C156.936 63.6624 156.253 63.0835 155.669 62.4116C155.385 62.0643 155.149 61.6801 154.968 61.2695C154.779 60.8511 154.681 60.3973 154.681 59.9381C154.681 59.479 154.779 59.0251 154.968 58.6068C155.152 58.1975 155.387 57.8136 155.669 57.4646C156.259 56.7936 156.946 56.2149 157.708 55.7479C159.189 54.8536 160.775 54.1475 162.431 53.6458C164.019 53.135 165.638 52.73 167.28 52.4336C168.891 52.1323 170.475 51.922 172.03 51.7749C174.955 51.4904 177.896 51.4131 180.831 51.5437C183.419 51.6607 185.995 51.9627 188.539 52.4476C190.631 52.8316 192.683 53.4062 194.67 54.1643C196.184 54.7144 197.602 55.4969 198.874 56.4836C199.334 56.8495 199.744 57.2734 200.094 57.7449C200.169 57.8427 200.237 57.9457 200.297 58.0532C200.361 58.1466 200.417 58.245 200.465 58.3475L200.598 58.6208C200.633 58.7119 200.661 58.803 200.689 58.88C200.742 59.0252 200.78 59.1755 200.801 59.3285C200.801 59.3916 200.801 59.4546 200.801 59.5037V59.6578C200.836 59.812 200.836 59.9031 200.836 59.9031Z" fill="#567EBB"/>
<path d="M192.414 40.7949L192.183 40.6477L192.057 40.5636C192.005 40.5339 191.951 40.5081 191.895 40.4866C191.762 40.4136 191.621 40.3549 191.475 40.3114C191.391 40.3114 191.307 40.2483 191.216 40.2273L190.915 40.1642C190.806 40.1405 190.696 40.1241 190.585 40.1152C190.464 40.108 190.342 40.108 190.221 40.1152C189.636 40.1078 189.052 40.1737 188.483 40.3114C186.932 40.723 185.453 41.3681 184.097 42.2243C182.286 43.332 180.581 44.6033 179.003 46.0221C177.077 47.7287 175.274 49.5691 173.607 51.5297C171.686 53.7725 169.928 56.1492 168.345 58.6418C167.518 59.9521 166.705 61.3536 165.962 62.755C165.192 64.2319 164.52 65.7581 163.951 67.3236C163.349 68.9383 162.946 70.6209 162.753 72.3336C162.66 73.2081 162.7 74.0918 162.872 74.9543C162.968 75.3861 163.122 75.8031 163.328 76.1945C163.545 76.581 163.832 76.9232 164.176 77.2035C164.533 77.4631 164.934 77.6555 165.36 77.7711C165.788 77.8749 166.229 77.9197 166.67 77.9042C167.55 77.8552 168.417 77.6733 169.242 77.3647C170.854 76.7531 172.384 75.9434 173.796 74.9543C175.17 74.0131 176.481 72.9832 177.72 71.8711C178.939 70.785 180.082 69.6639 181.147 68.5288C183.162 66.371 185.024 64.074 186.717 61.6549C188.202 59.5537 189.537 57.3504 190.711 55.0612C191.691 53.1783 192.497 51.2107 193.122 49.1823C193.612 47.6533 193.865 46.0582 193.871 44.4525C193.869 43.8699 193.789 43.2902 193.633 42.7288C193.633 42.6027 193.556 42.4906 193.521 42.3785C193.486 42.2663 193.444 42.1683 193.395 42.0702L193.262 41.7969C193.213 41.7128 193.157 41.6357 193.115 41.5656C193.035 41.4341 192.941 41.3119 192.834 41.2013L192.722 41.0611L192.61 40.963L192.414 40.7809L192.617 40.956L192.729 41.0541C192.772 41.0953 192.812 41.1398 192.848 41.1873C192.954 41.2989 193.048 41.4209 193.129 41.5516C193.178 41.6287 193.234 41.6988 193.283 41.7829L193.416 42.0631C193.47 42.1615 193.515 42.2647 193.549 42.3715C193.584 42.4836 193.633 42.5957 193.661 42.7218C193.823 43.2847 193.908 43.8669 193.914 44.4525C193.916 46.0624 193.668 47.6629 193.178 49.1963C192.556 51.2303 191.754 53.2048 190.781 55.0963C189.607 57.39 188.272 59.5981 186.787 61.7039C185.098 64.1306 183.237 66.4326 181.217 68.5918C180.152 69.734 179.01 70.8621 177.783 71.9482C176.541 73.0621 175.228 74.0943 173.852 75.0383C172.435 76.035 170.897 76.8496 169.277 77.4628C168.443 77.7744 167.566 77.9587 166.677 78.0093C166.225 78.0245 165.772 77.9797 165.332 77.8762C164.893 77.7525 164.48 77.5507 164.113 77.2806C163.758 76.9926 163.461 76.6409 163.237 76.2435C163.025 75.8434 162.867 75.4169 162.767 74.9753C162.597 74.103 162.559 73.2101 162.655 72.3266C162.845 70.6035 163.25 68.9109 163.86 67.2885C164.429 65.7208 165.101 64.1923 165.871 62.7129C166.621 61.2555 167.427 59.8681 168.261 58.5507C169.853 56.0592 171.619 53.6826 173.544 51.4386C175.214 49.4783 177.021 47.6401 178.953 45.938C180.541 44.5208 182.253 43.2497 184.069 42.1402C185.432 41.2877 186.919 40.6496 188.476 40.2483C189.047 40.1072 189.633 40.0413 190.221 40.0521C190.347 40.0521 190.466 40.0521 190.585 40.0521C190.698 40.0606 190.811 40.077 190.921 40.1012L191.223 40.1642L191.482 40.2553C191.628 40.301 191.769 40.362 191.902 40.4375C191.958 40.4591 192.012 40.4848 192.064 40.5146L192.19 40.6057L192.414 40.7949Z" fill="#567EBB"/>
<path d="M154.45 69.4257C154.569 69.5454 154.65 69.6978 154.682 69.8635C154.715 70.0292 154.698 70.2008 154.633 70.3567C154.568 70.5127 154.459 70.6459 154.318 70.7396C154.178 70.8334 154.013 70.8834 153.844 70.8834C153.675 70.8834 153.51 70.8334 153.369 70.7396C153.229 70.6459 153.119 70.5127 153.054 70.3567C152.989 70.2008 152.972 70.0292 153.005 69.8635C153.037 69.6978 153.118 69.5454 153.238 69.4257C153.317 69.3458 153.411 69.2824 153.515 69.2392C153.619 69.1959 153.731 69.1737 153.844 69.1737C153.956 69.1737 154.068 69.1959 154.172 69.2392C154.276 69.2824 154.37 69.3458 154.45 69.4257Z" fill="#567EBB"/>
<path d="M202.791 42.8759C202.793 43.0467 202.743 43.214 202.649 43.3567C202.556 43.4993 202.422 43.6109 202.264 43.6772C202.107 43.7435 201.933 43.7616 201.766 43.7291C201.598 43.6966 201.444 43.6151 201.323 43.4949C201.201 43.3746 201.119 43.2211 201.085 43.0537C201.051 42.8863 201.068 42.7127 201.133 42.5548C201.198 42.3969 201.308 42.2618 201.45 42.1668C201.592 42.0718 201.759 42.0211 201.929 42.0211C202.042 42.0202 202.154 42.0416 202.259 42.0841C202.363 42.1267 202.458 42.1895 202.538 42.269C202.619 42.3484 202.682 42.443 202.726 42.5472C202.769 42.6514 202.791 42.7631 202.791 42.8759Z" fill="#567EBB"/>
<path d="M159.859 72.2425C159.859 72.2855 159.847 72.3275 159.823 72.3632C159.799 72.3989 159.765 72.4268 159.725 72.4432C159.685 72.4596 159.642 72.4639 159.6 72.4556C159.558 72.4472 159.519 72.4265 159.488 72.3961C159.458 72.3657 159.437 72.327 159.429 72.2849C159.421 72.2428 159.425 72.1991 159.441 72.1594C159.458 72.1197 159.486 72.0858 159.521 72.0619C159.557 72.038 159.599 72.0253 159.642 72.0253C159.7 72.0253 159.755 72.0482 159.796 72.0889C159.836 72.1297 159.859 72.1849 159.859 72.2425Z" fill="#567EBB"/>
<path d="M164.505 48.2363C164.505 48.2793 164.492 48.3213 164.468 48.357C164.444 48.3927 164.41 48.4206 164.371 48.437C164.331 48.4534 164.287 48.4577 164.245 48.4494C164.203 48.441 164.164 48.4203 164.134 48.3899C164.104 48.3595 164.083 48.3208 164.074 48.2787C164.066 48.2366 164.07 48.1929 164.087 48.1532C164.103 48.1135 164.131 48.0796 164.167 48.0557C164.203 48.0318 164.245 48.0191 164.288 48.0191C164.345 48.0191 164.4 48.042 164.441 48.0827C164.482 48.1235 164.505 48.1787 164.505 48.2363Z" fill="#567EBB"/>
<path d="M198.482 59.9031C198.482 59.9607 198.459 60.0159 198.418 60.0567C198.378 60.0974 198.322 60.1203 198.265 60.1203C198.207 60.1203 198.152 60.0974 198.111 60.0567C198.07 60.0159 198.048 59.9607 198.048 59.9031C198.048 59.8455 198.07 59.7902 198.111 59.7495C198.152 59.7087 198.207 59.6859 198.265 59.6859C198.322 59.6859 198.378 59.7087 198.418 59.7495C198.459 59.7902 198.482 59.8455 198.482 59.9031Z" fill="#567EBB"/>
<path d="M201.509 49.7569C201.509 49.8145 201.486 49.8697 201.446 49.9105C201.405 49.9512 201.35 49.9741 201.292 49.9741C201.234 49.9741 201.179 49.9512 201.138 49.9105C201.098 49.8697 201.075 49.8145 201.075 49.7569C201.075 49.6992 201.098 49.644 201.138 49.6033C201.179 49.5625 201.234 49.5396 201.292 49.5396C201.35 49.5396 201.405 49.5625 201.446 49.6033C201.486 49.644 201.509 49.6992 201.509 49.7569Z" fill="#567EBB"/>
<path d="M186.836 64.6889H184.146V50.0371C184.146 48.3776 183.486 46.786 182.313 45.6126C181.139 44.4391 179.548 43.7798 177.888 43.7798C176.229 43.7798 174.637 44.4391 173.464 45.6126C172.29 46.786 171.631 48.3776 171.631 50.0371V64.6889H168.919V50.0371C168.919 47.664 169.862 45.388 171.54 43.7099C173.218 42.0319 175.494 41.0891 177.867 41.0891C180.24 41.0891 182.516 42.0319 184.194 43.7099C185.872 45.388 186.815 47.664 186.815 50.0371L186.836 64.6889Z" fill="#567EBB"/>
<g opacity="0.3">
<path d="M186.836 64.6889H184.146V50.0371C184.146 48.3776 183.486 46.786 182.313 45.6126C181.139 44.4391 179.548 43.7798 177.888 43.7798C176.229 43.7798 174.637 44.4391 173.464 45.6126C172.29 46.786 171.631 48.3776 171.631 50.0371V64.6889H168.919V50.0371C168.919 47.664 169.862 45.388 171.54 43.7099C173.218 42.0319 175.494 41.0891 177.867 41.0891C180.24 41.0891 182.516 42.0319 184.194 43.7099C185.872 45.388 186.815 47.664 186.815 50.0371L186.836 64.6889Z" fill="black"/>
</g>
<path d="M188.371 58.1723H167.406C166.535 58.1723 165.829 58.8782 165.829 59.7489V72.0673C165.829 72.938 166.535 73.6439 167.406 73.6439H188.371C189.242 73.6439 189.947 72.938 189.947 72.0673V59.7489C189.947 58.8782 189.242 58.1723 188.371 58.1723Z" fill="#567EBB"/>
<g opacity="0.3">
<path d="M179.906 63.8971C179.909 63.5209 179.807 63.1513 179.611 62.8302C179.415 62.509 179.133 62.249 178.797 62.0796C178.461 61.9102 178.085 61.838 177.71 61.8714C177.335 61.9047 176.977 62.0421 176.676 62.2681C176.375 62.4941 176.144 62.7997 176.007 63.1504C175.871 63.5011 175.836 63.8829 175.905 64.2528C175.974 64.6226 176.145 64.9657 176.399 65.2434C176.653 65.521 176.98 65.7221 177.342 65.8241V68.8371H178.435V65.8241C178.857 65.7077 179.229 65.4563 179.495 65.1084C179.761 64.7604 179.905 64.335 179.906 63.8971Z" fill="black"/>
</g>
<path d="M167.119 72.1795C167.062 72.1795 167.013 69.6009 167.013 66.4197C167.013 63.2385 167.062 60.6529 167.119 60.6529C167.175 60.6529 167.217 63.2315 167.217 66.4197C167.217 69.6079 167.168 72.1795 167.119 72.1795Z" fill="#FAFAFA"/>
<path d="M176.312 66.4757C176.312 66.4757 176.214 66.4757 176.074 66.3425C175.875 66.1947 175.7 66.0175 175.555 65.817C175.3 65.4867 175.121 65.1035 175.033 64.6954C174.945 64.2873 174.949 63.8647 175.045 63.4584C175.141 63.0522 175.327 62.6724 175.588 62.3471C175.85 62.0217 176.181 61.7588 176.557 61.5777C176.776 61.4601 177.013 61.3774 177.258 61.3325C177.348 61.3156 177.441 61.3156 177.531 61.3325C177.221 61.4376 176.919 61.564 176.627 61.7109C176.285 61.8996 175.986 62.1577 175.75 62.4686C175.513 62.7796 175.345 63.1365 175.254 63.5165C175.164 63.8966 175.154 64.2913 175.225 64.6754C175.296 65.0595 175.447 65.4245 175.667 65.7469C175.862 66.0068 176.078 66.2505 176.312 66.4757Z" fill="#FAFAFA"/>
<path d="M213.694 86.9082H139.44C135.834 86.9082 132.91 89.8321 132.91 93.4388V94.2376C132.91 97.8443 135.834 100.768 139.44 100.768H213.694C217.301 100.768 220.225 97.8443 220.225 94.2376V93.4388C220.225 89.8321 217.301 86.9082 213.694 86.9082Z" fill="#F5F5F5"/>
<path d="M214.332 105.911H140.078C136.471 105.911 133.548 108.835 133.548 112.442V113.241C133.548 116.847 136.471 119.771 140.078 119.771H214.332C217.939 119.771 220.863 116.847 220.863 113.241V112.442C220.863 108.835 217.939 105.911 214.332 105.911Z" fill="#F5F5F5"/>
<path d="M146.707 93.7261V91.7221H147.541V93.6981C147.541 94.3988 147.835 94.6581 148.339 94.6581C148.844 94.6581 149.138 94.3778 149.138 93.6981V91.7221H149.958V93.7261C149.958 94.1573 149.787 94.5708 149.482 94.8756C149.177 95.1805 148.764 95.3518 148.332 95.3518C147.901 95.3518 147.488 95.1805 147.183 94.8756C146.878 94.5708 146.707 94.1573 146.707 93.7261Z" fill="#181214"/>
<path d="M150.456 95.0504L150.715 94.4759C151.006 94.6488 151.337 94.7407 151.675 94.7421C152.046 94.7421 152.18 94.644 152.18 94.4899C152.18 94.0414 150.519 94.4899 150.519 93.4038C150.519 92.8783 150.988 92.5069 151.794 92.5069C152.162 92.501 152.525 92.5852 152.852 92.7521L152.586 93.3197C152.345 93.1823 152.072 93.1121 151.794 93.1165C151.437 93.1165 151.283 93.2286 151.283 93.3687C151.283 93.8382 152.943 93.3687 152.943 94.4688C152.943 94.9804 152.474 95.3447 151.647 95.3447C151.231 95.354 150.82 95.2524 150.456 95.0504Z" fill="#181214"/>
<path d="M156.124 94.1535H154.022C154.065 94.3258 154.169 94.4768 154.315 94.5785C154.46 94.6802 154.638 94.7259 154.814 94.7071C154.943 94.7128 155.071 94.6921 155.192 94.6463C155.312 94.6005 155.422 94.5306 155.515 94.4408L155.942 94.9033C155.796 95.0544 155.619 95.1721 155.423 95.2483C155.227 95.3245 155.017 95.3574 154.807 95.3447C154.609 95.3697 154.408 95.352 154.217 95.2929C154.026 95.2337 153.85 95.1345 153.701 95.0017C153.552 94.869 153.432 94.7059 153.351 94.5234C153.27 94.3409 153.229 94.1431 153.231 93.9433C153.23 93.7532 153.269 93.5651 153.343 93.3903C153.418 93.2156 153.528 93.0579 153.665 92.9268C153.803 92.7957 153.966 92.694 154.144 92.6278C154.322 92.5616 154.512 92.5324 154.702 92.5419C154.889 92.5372 155.075 92.57 155.249 92.6384C155.423 92.7067 155.582 92.8092 155.716 92.9398C155.85 93.0704 155.956 93.2265 156.029 93.3988C156.101 93.5712 156.139 93.7563 156.138 93.9433C156.138 93.9994 156.124 94.0835 156.124 94.1535ZM154.022 93.6841H155.375C155.334 93.5356 155.246 93.4046 155.124 93.3112C155.002 93.2177 154.852 93.1671 154.698 93.1671C154.545 93.1671 154.395 93.2177 154.273 93.3112C154.151 93.4046 154.063 93.5356 154.022 93.6841Z" fill="#181214"/>
<path d="M158.409 92.5069V93.2497H158.227C158.128 93.2492 158.031 93.2693 157.941 93.3088C157.851 93.3483 157.771 93.4063 157.705 93.479C157.638 93.5517 157.588 93.6374 157.558 93.7307C157.527 93.824 157.516 93.9227 157.526 94.0204V95.3167H156.727V92.563H157.491V92.8853C157.603 92.7547 157.745 92.6524 157.905 92.5866C158.064 92.5209 158.237 92.4936 158.409 92.5069Z" fill="#181214"/>
<path d="M161.674 93.7262V95.3027H160.875V93.8523C160.875 93.4038 160.672 93.2006 160.315 93.2006C159.957 93.2006 159.656 93.4389 159.656 93.9434V95.3027H158.857V92.549H159.621V92.8853C159.739 92.7648 159.881 92.6702 160.038 92.6075C160.195 92.5447 160.363 92.5153 160.532 92.5209C160.69 92.5105 160.849 92.5351 160.996 92.5929C161.144 92.6508 161.277 92.7404 161.386 92.8554C161.495 92.9705 161.577 93.1082 161.627 93.2587C161.677 93.4091 161.693 93.5688 161.674 93.7262Z" fill="#181214"/>
<path d="M164.834 93.7332V95.3027H164.085V94.9874C163.992 95.1214 163.865 95.228 163.717 95.2958C163.569 95.3637 163.406 95.3903 163.244 95.3728C162.599 95.3728 162.214 95.0155 162.214 94.539C162.214 94.0625 162.557 93.7121 163.398 93.7121H164.014C164.014 93.3758 163.811 93.1726 163.377 93.1726C163.092 93.1716 162.814 93.2625 162.585 93.4319L162.298 92.8713C162.652 92.6422 163.067 92.525 163.489 92.535C164.344 92.5069 164.834 92.8853 164.834 93.7332ZM164.035 94.4339V94.1536H163.489C163.111 94.1536 162.998 94.2937 162.998 94.4759C162.998 94.6581 163.167 94.8122 163.447 94.8122C163.569 94.8159 163.689 94.7815 163.791 94.7137C163.893 94.6459 163.971 94.5481 164.014 94.4339H164.035Z" fill="#181214"/>
<path d="M170.209 93.7261V95.3027H169.41V93.8523C169.41 93.4038 169.214 93.2006 168.891 93.2006C168.569 93.2006 168.282 93.4318 168.282 93.9013V95.3027H167.518V93.8523C167.518 93.4038 167.329 93.2006 166.992 93.2006C166.656 93.2006 166.39 93.4318 166.39 93.9013V95.3027H165.556V92.5489H166.32V92.8853C166.428 92.7653 166.561 92.6705 166.71 92.6076C166.859 92.5446 167.02 92.515 167.182 92.5209C167.36 92.5127 167.537 92.5503 167.696 92.63C167.856 92.7098 167.992 92.829 168.092 92.9764C168.211 92.8282 168.363 92.7098 168.536 92.6307C168.709 92.5517 168.898 92.5141 169.087 92.5209C169.245 92.5112 169.402 92.5365 169.548 92.5949C169.694 92.6532 169.826 92.7433 169.933 92.8585C170.04 92.9738 170.12 93.1114 170.168 93.2614C170.216 93.4114 170.23 93.5701 170.209 93.7261Z" fill="#181214"/>
<path d="M173.642 94.1535H171.54C171.576 94.3284 171.677 94.483 171.822 94.5859C171.968 94.6888 172.148 94.7321 172.325 94.7071C172.453 94.7124 172.582 94.6915 172.702 94.6458C172.823 94.6 172.933 94.5303 173.025 94.4408L173.446 94.9033C173.3 95.0552 173.123 95.1734 172.927 95.2496C172.731 95.3259 172.521 95.3583 172.311 95.3447C172.113 95.3686 171.912 95.3501 171.723 95.2905C171.533 95.2308 171.358 95.1314 171.209 94.9988C171.061 94.8662 170.942 94.7035 170.861 94.5215C170.781 94.3395 170.74 94.1424 170.741 93.9433C170.741 93.7532 170.779 93.5651 170.854 93.3903C170.929 93.2156 171.038 93.0579 171.176 92.9268C171.314 92.7957 171.476 92.694 171.655 92.6278C171.833 92.5616 172.023 92.5324 172.212 92.5419C172.584 92.5419 172.941 92.6896 173.203 92.9524C173.466 93.2152 173.614 93.5716 173.614 93.9433C173.656 93.9994 173.649 94.0835 173.642 94.1535ZM171.54 93.6841H172.899C172.876 93.5181 172.791 93.367 172.661 93.2616C172.531 93.1561 172.366 93.1043 172.198 93.1165C172.039 93.1136 171.884 93.1701 171.763 93.2749C171.643 93.3798 171.566 93.5256 171.547 93.6841H171.54Z" fill="#181214"/>
<path d="M178.925 93.9013C178.925 94.8193 178.505 95.3448 177.874 95.3448C177.725 95.3547 177.576 95.3165 177.45 95.2358C177.324 95.1551 177.227 95.0361 177.174 94.8963C177.081 95.0421 176.95 95.1605 176.796 95.2393C176.643 95.3181 176.47 95.3545 176.298 95.3448C175.977 95.3114 175.68 95.1604 175.465 94.921C175.249 94.6816 175.129 94.3708 175.129 94.0485C175.129 93.7262 175.249 93.4153 175.465 93.1759C175.68 92.9365 175.977 92.7856 176.298 92.7522C176.446 92.7453 176.594 92.7727 176.73 92.8322C176.866 92.8917 176.987 92.9819 177.083 93.0955V92.7942H177.783V94.4479C177.783 94.6931 177.888 94.7772 178.028 94.7772C178.169 94.7772 178.407 94.5039 178.407 93.9153C178.41 93.6708 178.361 93.4284 178.265 93.2038C178.168 92.9792 178.025 92.7775 177.845 92.6116C177.666 92.4458 177.453 92.3196 177.222 92.2412C176.99 92.1628 176.744 92.134 176.501 92.1566C176.008 92.1566 175.536 92.3522 175.188 92.7004C174.84 93.0487 174.644 93.521 174.644 94.0134C174.644 94.5059 174.84 94.9782 175.188 95.3264C175.536 95.6747 176.008 95.8703 176.501 95.8703C176.85 95.8699 177.194 95.7933 177.51 95.6461L177.671 96.1156C177.304 96.2834 176.904 96.3671 176.501 96.3608C176.182 96.3782 175.864 96.3305 175.564 96.2206C175.265 96.1107 174.991 95.9409 174.759 95.7215C174.527 95.5022 174.343 95.2379 174.217 94.9448C174.09 94.6517 174.025 94.336 174.025 94.017C174.025 93.6979 174.09 93.3822 174.217 93.0891C174.343 92.796 174.527 92.5318 174.759 92.3124C174.991 92.093 175.265 91.9232 175.564 91.8133C175.864 91.7034 176.182 91.6557 176.501 91.6731C176.809 91.648 177.119 91.6869 177.412 91.7874C177.704 91.8879 177.973 92.0478 178.2 92.257C178.428 92.4663 178.61 92.7204 178.735 93.0034C178.86 93.2864 178.924 93.5921 178.925 93.9013ZM177.097 94.0485C177.107 93.9588 177.097 93.868 177.069 93.7822C177.041 93.6964 176.995 93.6176 176.934 93.5512C176.873 93.4848 176.798 93.4322 176.715 93.3971C176.632 93.362 176.542 93.3452 176.452 93.3478C176.266 93.3478 176.088 93.4216 175.956 93.553C175.825 93.6844 175.751 93.8626 175.751 94.0485C175.751 94.2343 175.825 94.4126 175.956 94.544C176.088 94.6754 176.266 94.7492 176.452 94.7492C176.542 94.7518 176.632 94.7349 176.715 94.6998C176.798 94.6647 176.873 94.6122 176.934 94.5458C176.995 94.4794 177.041 94.4006 177.069 94.3148C177.097 94.229 177.107 94.1382 177.097 94.0485Z" fill="#181214"/>
<path d="M184.146 93.7261V95.3027H183.347V93.8523C183.347 93.4038 183.151 93.2006 182.828 93.2006C182.506 93.2006 182.219 93.4318 182.219 93.9013V95.3027H181.42V93.8523C181.42 93.4038 181.231 93.2006 180.894 93.2006C180.558 93.2006 180.292 93.4318 180.292 93.9013V95.3027H179.493V92.5489H180.257V92.8853C180.365 92.7653 180.498 92.6705 180.647 92.6076C180.796 92.5446 180.957 92.515 181.119 92.5209C181.297 92.5127 181.474 92.5503 181.633 92.63C181.793 92.7098 181.929 92.829 182.029 92.9764C182.147 92.8287 182.298 92.7107 182.47 92.6316C182.641 92.5525 182.829 92.5146 183.017 92.5209C183.175 92.5101 183.333 92.5346 183.48 92.5925C183.627 92.6504 183.76 92.7403 183.868 92.8557C183.976 92.9711 184.057 93.109 184.105 93.2596C184.153 93.4101 184.167 93.5695 184.146 93.7261Z" fill="#181214"/>
<path d="M187.299 93.7332V95.3027H186.556V94.9874C186.463 95.1214 186.337 95.228 186.189 95.2958C186.041 95.3637 185.877 95.3903 185.715 95.3728C185.07 95.3728 184.685 95.0155 184.685 94.539C184.685 94.0625 185.028 93.7121 185.869 93.7121H186.5C186.5 93.3758 186.297 93.1726 185.869 93.1726C185.584 93.169 185.305 93.2602 185.077 93.4319L184.79 92.8713C185.142 92.6435 185.555 92.5264 185.974 92.535C186.815 92.5069 187.299 92.8853 187.299 93.7332ZM186.5 94.4339V94.1536H185.953C185.582 94.1536 185.463 94.2937 185.463 94.4759C185.463 94.6581 185.631 94.8122 185.911 94.8122C186.037 94.8205 186.162 94.7881 186.268 94.72C186.374 94.6519 186.455 94.5516 186.5 94.4339Z" fill="#181214"/>
<path d="M187.929 91.7221C187.93 91.6592 187.944 91.5971 187.97 91.5397C187.996 91.4824 188.033 91.431 188.08 91.3889C188.127 91.3468 188.182 91.3148 188.241 91.2949C188.301 91.2751 188.364 91.2679 188.427 91.2737C188.513 91.2831 188.594 91.3173 188.661 91.3719C188.728 91.4266 188.778 91.4995 188.805 91.5818C188.831 91.6641 188.833 91.7523 188.811 91.8359C188.789 91.9194 188.742 91.9946 188.678 92.0525C188.614 92.1104 188.534 92.1485 188.449 92.1622C188.363 92.1759 188.276 92.1646 188.197 92.1297C188.118 92.0948 188.05 92.0377 188.003 91.9654C187.955 91.8931 187.93 91.8086 187.929 91.7221ZM188.028 92.549H188.819V95.3027H188.028V92.549Z" fill="#181214"/>
<path d="M189.569 91.4838H190.368V95.2816H189.569V91.4838Z" fill="#181214"/>
<path d="M190.914 94.8472C190.914 94.7153 190.967 94.5888 191.06 94.4955C191.153 94.4022 191.28 94.3497 191.412 94.3497C191.544 94.3497 191.67 94.4022 191.764 94.4955C191.857 94.5888 191.909 94.7153 191.909 94.8472C191.909 94.9792 191.857 95.1057 191.764 95.199C191.67 95.2923 191.544 95.3447 191.412 95.3447C191.28 95.3447 191.153 95.2923 191.06 95.199C190.967 95.1057 190.914 94.9792 190.914 94.8472Z" fill="#181214"/>
<path d="M192.211 93.9293C192.21 93.7335 192.25 93.5397 192.329 93.3604C192.407 93.1811 192.523 93.0202 192.667 92.8882C192.812 92.7561 192.982 92.6559 193.168 92.5938C193.354 92.5318 193.55 92.5093 193.745 92.5279C193.998 92.5066 194.25 92.5621 194.471 92.6872C194.691 92.8123 194.868 93.001 194.979 93.2286L194.362 93.558C194.291 93.4536 194.194 93.3692 194.081 93.3129C193.968 93.2566 193.843 93.2304 193.717 93.2367C193.591 93.243 193.468 93.2816 193.362 93.3488C193.255 93.4161 193.167 93.5096 193.107 93.6206C193.047 93.7315 193.016 93.8561 193.018 93.9823C193.02 94.1085 193.054 94.2321 193.117 94.3412C193.181 94.4504 193.271 94.5413 193.38 94.6054C193.489 94.6695 193.612 94.7045 193.738 94.7071C193.867 94.7074 193.993 94.6722 194.103 94.6055C194.213 94.5387 194.303 94.443 194.362 94.3287L194.979 94.6651C194.866 94.8914 194.689 95.0791 194.469 95.2039C194.249 95.3288 193.997 95.3851 193.745 95.3658C193.547 95.3847 193.348 95.3614 193.16 95.2973C192.971 95.2332 192.799 95.1297 192.654 94.9939C192.509 94.858 192.394 94.6928 192.318 94.5093C192.241 94.3257 192.205 94.128 192.211 93.9293Z" fill="#181214"/>
<path d="M195.203 93.9293C195.18 93.6262 195.249 93.3234 195.401 93.0602C195.553 92.797 195.781 92.5857 196.055 92.4537C196.329 92.3218 196.636 92.2754 196.937 92.3205C197.237 92.3656 197.517 92.5002 197.74 92.7067C197.963 92.9132 198.119 93.182 198.187 93.4783C198.255 93.7745 198.232 94.0844 198.122 94.3675C198.011 94.6507 197.818 94.894 197.568 95.0658C197.317 95.2376 197.02 95.3299 196.716 95.3308C196.523 95.3463 196.329 95.3215 196.145 95.2581C195.962 95.1946 195.794 95.0938 195.652 94.9621C195.51 94.8304 195.396 94.6706 195.319 94.4929C195.242 94.3151 195.202 94.1232 195.203 93.9293ZM197.417 93.9293C197.405 93.7941 197.353 93.6654 197.269 93.5587C197.185 93.4521 197.072 93.3721 196.943 93.3286C196.815 93.2851 196.676 93.2799 196.545 93.3137C196.413 93.3474 196.294 93.4187 196.203 93.5187C196.111 93.6188 196.05 93.7433 196.028 93.8773C196.006 94.0112 196.023 94.1487 196.077 94.2731C196.131 94.3975 196.221 94.5035 196.334 94.578C196.448 94.6526 196.58 94.6926 196.716 94.6931C196.814 94.6935 196.91 94.6735 197 94.6344C197.089 94.5953 197.169 94.538 197.235 94.4661C197.301 94.3942 197.352 94.3093 197.383 94.2169C197.414 94.1245 197.426 94.0265 197.417 93.9293Z" fill="#181214"/>
<path d="M203.415 93.7261V95.3027H202.616V93.8523C202.616 93.4038 202.413 93.2006 202.091 93.2006C201.768 93.2006 201.481 93.4318 201.481 93.9013V95.3027H200.682V93.8523C200.682 93.4038 200.493 93.2006 200.164 93.2006C199.834 93.2006 199.561 93.4318 199.561 93.9013V95.3027H198.762V92.5489H199.519V92.8853C199.629 92.7651 199.763 92.6703 199.913 92.6074C200.063 92.5445 200.225 92.515 200.388 92.5209C200.565 92.5119 200.742 92.5492 200.9 92.629C201.059 92.7089 201.194 92.8286 201.292 92.9764C201.411 92.829 201.563 92.7112 201.736 92.6322C201.909 92.5532 202.097 92.5151 202.287 92.5209C202.444 92.5101 202.603 92.5346 202.75 92.5925C202.897 92.6504 203.029 92.7403 203.137 92.8557C203.245 92.9711 203.326 93.109 203.374 93.2596C203.422 93.4101 203.436 93.5695 203.415 93.7261Z" fill="#181214"/>
<path d="M157.407 112.918L158.703 113.619L158.121 114.593L156.811 113.822V115.266H155.69V113.808L154.422 114.607L153.847 113.633L155.15 112.933L153.847 112.232L154.422 111.258L155.732 112.043V110.592H156.853V112.043L158.164 111.258L158.745 112.232L157.407 112.918Z" fill="#181214"/>
<path d="M162.809 112.918L164.106 113.619L163.524 114.607L162.214 113.836V115.28H161.099V113.822L159.81 114.607L159.236 113.633L160.532 112.933L159.236 112.232L159.81 111.258L161.12 112.043V110.592H162.235V112.043L163.545 111.258L164.127 112.232L162.809 112.918Z" fill="#181214"/>
<path d="M168.219 112.918L169.515 113.619L168.919 114.607L167.616 113.836V115.28H166.495V113.822L165.22 114.607L164.652 113.633L165.948 112.933L164.652 112.232L165.22 111.258L166.53 112.043V110.592H167.651V112.043L168.954 111.258L169.543 112.232L168.219 112.918Z" fill="#181214"/>
<path d="M173.607 112.918L174.903 113.619L174.322 114.593L173.011 113.822V115.266H171.89V113.808L170.622 114.607L170.047 113.633L171.351 112.933L170.047 112.232L170.622 111.258L171.932 112.043V110.592H173.053V112.043L174.364 111.258L174.945 112.232L173.607 112.918Z" fill="#181214"/>
<path d="M179.01 112.918L180.306 113.619L179.724 114.593L178.414 113.822V115.266H177.328V113.808L176.025 114.607L175.45 113.633L176.746 112.932L175.45 112.232L176.025 111.258L177.328 112.015V110.564H178.442V112.015L179.752 111.23L180.334 112.204L179.01 112.918Z" fill="#181214"/>
<path d="M184.412 112.918L185.708 113.619L185.127 114.593L183.816 113.822V115.266H182.695V113.808L181.42 114.607L180.852 113.633L182.149 112.933L180.852 112.232L181.42 111.258L182.73 112.043V110.592H183.851V112.043L185.162 111.258L185.743 112.232L184.412 112.918Z" fill="#181214"/>
<path d="M189.807 112.918L191.104 113.619L190.522 114.593L189.212 113.822V115.266H188.091V113.808L186.822 114.607L186.248 113.633L187.551 112.933L186.248 112.232L186.822 111.258L188.133 112.043V110.592H189.24V112.043L190.55 111.258L191.132 112.232L189.807 112.918Z" fill="#181214"/>
<path d="M195.21 112.918L196.506 113.619L195.924 114.593L194.614 113.822V115.266H193.5V113.808L192.225 114.607L191.65 113.633L192.946 112.933L191.65 112.232L192.225 111.258L193.535 112.043V110.592H194.649V112.043L195.959 111.258L196.541 112.232L195.21 112.918Z" fill="#181214"/>
<path d="M131.571 74.2117H76.9863C76.613 74.2117 76.2434 74.2853 75.8986 74.4284C75.5539 74.5714 75.2407 74.7811 74.9771 75.0454C74.7135 75.3096 74.5046 75.6233 74.3624 75.9684C74.2202 76.3135 74.1475 76.6833 74.1484 77.0566V101.918C74.1437 102.292 74.2139 102.663 74.3549 103.009C74.4958 103.356 74.7047 103.67 74.9691 103.935C75.2336 104.199 75.5483 104.408 75.8947 104.549C76.2412 104.69 76.6123 104.76 76.9863 104.755H99.8853L104.748 110.999L108.805 104.755H131.571C131.944 104.755 132.313 104.682 132.657 104.539C133.002 104.397 133.314 104.188 133.578 103.924C133.841 103.661 134.05 103.348 134.193 103.004C134.336 102.659 134.409 102.29 134.409 101.918V77.0566C134.409 76.3033 134.11 75.5807 133.578 75.0474C133.046 74.5141 132.325 74.2136 131.571 74.2117Z" fill="white"/>
<path d="M131.571 74.2117H131.838C132.104 74.2347 132.365 74.2937 132.615 74.3869C133.025 74.5336 133.394 74.7735 133.695 75.0876C134.124 75.5495 134.388 76.1411 134.444 76.7693C134.5 79.474 134.486 83.412 134.507 88.401C134.507 90.8955 134.507 93.6493 134.507 96.6343C134.507 98.1338 134.507 99.6824 134.507 101.294C134.526 101.706 134.508 102.119 134.451 102.527C134.365 102.952 134.188 103.354 133.933 103.704C133.671 104.064 133.331 104.36 132.939 104.571C132.548 104.782 132.114 104.902 131.669 104.924H108.77L108.911 104.854C107.635 106.809 106.262 108.932 104.86 111.09L104.727 111.293L104.573 111.104L99.7103 104.868L99.8504 104.938H77.8273C77.4279 104.938 77.0565 104.938 76.6291 104.938C76.0072 104.864 75.4235 104.599 74.9581 104.18C74.4926 103.761 74.1683 103.208 74.0295 102.597C73.9596 102.204 73.9338 101.805 73.9524 101.406V91.1407C73.9524 88.1557 73.9524 85.2291 73.9524 82.3609V77.0566C73.9526 76.6874 74.0215 76.3215 74.1556 75.9775C74.4154 75.2937 74.9129 74.7265 75.557 74.3799C75.8787 74.2153 76.2278 74.1108 76.587 74.0716C76.9325 74.0543 77.2786 74.0543 77.6241 74.0716H83.5871H91.1407H104.692L124.312 74.1276L129.644 74.1627L124.312 74.1977L104.692 74.2538H91.1407H77.6801C77.3438 74.2538 76.9794 74.2538 76.6781 74.2538C76.3598 74.2902 76.051 74.3853 75.7672 74.534C75.1877 74.8309 74.7367 75.3293 74.4989 75.9354C74.3787 76.2412 74.3169 76.5668 74.3168 76.8954V77.9465C74.3168 79.3479 74.3168 80.7493 74.3168 82.1998V90.9796C74.3168 93.9599 74.3168 96.9963 74.3168 100.089V101.252C74.2946 101.624 74.3157 101.998 74.3798 102.366C74.5033 102.903 74.7898 103.388 75.2 103.756C75.6102 104.123 76.1241 104.355 76.6711 104.419C77.0285 104.454 77.4419 104.419 77.8273 104.419H99.9696L100.026 104.489L104.889 110.725H104.601L108.658 104.489L108.707 104.412H108.805H131.69C132.093 104.399 132.488 104.293 132.844 104.104C133.2 103.914 133.507 103.646 133.744 103.319C133.981 103.004 134.144 102.64 134.22 102.254C134.274 101.862 134.293 101.465 134.276 101.07C134.276 99.4581 134.276 97.9096 134.276 96.4101C134.276 93.4251 134.276 90.6713 134.276 88.1768C134.276 83.2018 134.276 79.2638 134.311 76.5521C134.249 75.9659 134.004 75.4143 133.61 74.9755C133.323 74.6541 132.966 74.4025 132.566 74.2397C132.238 74.1831 131.903 74.1737 131.571 74.2117Z" fill="#181214"/>
<path d="M94.0555 81.2328V82.1507H93.4599V81.2257L92.4509 79.5721H93.0886L93.7893 80.7212L94.49 79.5721H95.0786L94.0555 81.2328Z" fill="#181214"/>
<path d="M95.0505 80.8544C95.0379 80.5749 95.1093 80.298 95.2554 80.0594C95.4015 79.8208 95.6158 79.6314 95.8705 79.5156C96.1252 79.3998 96.4087 79.3629 96.6846 79.4096C96.9605 79.4564 97.216 79.5846 97.4184 79.7779C97.6207 79.9711 97.7606 80.2205 97.82 80.4939C97.8793 80.7673 97.8555 81.0523 97.7516 81.312C97.6476 81.5718 97.4683 81.7945 97.2366 81.9515C97.005 82.1084 96.7317 82.1925 96.4519 82.1928C96.2709 82.2013 96.0901 82.173 95.9204 82.1096C95.7506 82.0461 95.5955 81.9489 95.4645 81.8238C95.3335 81.6986 95.2292 81.5482 95.1581 81.3816C95.0869 81.2149 95.0503 81.0356 95.0505 80.8544ZM97.2787 80.8544C97.2773 80.6939 97.2285 80.5375 97.1384 80.4048C97.0482 80.272 96.9208 80.1689 96.7721 80.1085C96.6235 80.048 96.4603 80.0329 96.3031 80.0651C96.1459 80.0972 96.0017 80.1752 95.8887 80.2891C95.7758 80.4031 95.699 80.5479 95.6682 80.7054C95.6374 80.8629 95.6539 81.0259 95.7157 81.1741C95.7774 81.3222 95.8816 81.4487 96.0151 81.5377C96.1486 81.6267 96.3055 81.6742 96.4659 81.6742C96.5741 81.6772 96.6816 81.6579 96.7821 81.6177C96.8825 81.5774 96.9736 81.517 97.0497 81.4402C97.1259 81.3634 97.1855 81.2718 97.2249 81.171C97.2643 81.0703 97.2826 80.9625 97.2787 80.8544Z" fill="#181214"/>
<path d="M98.3228 81.0085V79.5721H98.9254V80.9735C98.9254 81.464 99.1426 81.6742 99.4999 81.6742C99.8573 81.6742 100.082 81.471 100.082 80.9735V79.5721H100.677V81.0225C100.677 81.3348 100.553 81.6342 100.332 81.8549C100.112 82.0757 99.8121 82.1997 99.4999 82.1997C99.1877 82.1997 98.8883 82.0757 98.6675 81.8549C98.4468 81.6342 98.3228 81.3348 98.3228 81.0225V81.0085Z" fill="#181214"/>
<path d="M102.926 82.1507L102.429 81.45H101.875V82.1507H101.273V79.5721H102.394C103.095 79.5721 103.522 79.9294 103.522 80.511C103.53 80.6861 103.483 80.8593 103.387 81.0063C103.292 81.1533 103.153 81.2668 102.989 81.3308L103.571 82.1647L102.926 82.1507ZM102.366 80.0486H101.875V80.9735H102.366C102.73 80.9735 102.912 80.7983 102.912 80.518C102.912 80.2378 102.73 80.0416 102.352 80.0416L102.366 80.0486Z" fill="#181214"/>
<path d="M104.888 80.8544C104.891 80.567 104.981 80.2873 105.148 80.0531C105.315 79.819 105.549 79.6417 105.82 79.5453C106.091 79.4489 106.384 79.4381 106.662 79.5144C106.939 79.5906 107.186 79.7502 107.369 79.9715L106.984 80.3288C106.904 80.231 106.804 80.1525 106.69 80.0991C106.576 80.0457 106.451 80.0188 106.325 80.0205C106.118 80.0396 105.925 80.1353 105.785 80.2889C105.645 80.4425 105.567 80.6429 105.567 80.8509C105.567 81.0588 105.645 81.2592 105.785 81.4128C105.925 81.5664 106.118 81.6622 106.325 81.6812C106.45 81.6843 106.575 81.6587 106.689 81.6065C106.803 81.5543 106.904 81.4768 106.984 81.3799L107.369 81.7302C107.186 81.9511 106.94 82.1105 106.663 82.187C106.387 82.2634 106.094 82.2532 105.823 82.1577C105.553 82.0622 105.318 81.886 105.151 81.6529C104.984 81.4199 104.892 81.1411 104.888 80.8544Z" fill="#181214"/>
<path d="M107.558 80.8544C107.545 80.5749 107.617 80.298 107.763 80.0594C107.909 79.8208 108.123 79.6314 108.378 79.5156C108.633 79.3998 108.916 79.3629 109.192 79.4096C109.468 79.4564 109.724 79.5846 109.926 79.7779C110.128 79.9711 110.268 80.2205 110.328 80.4939C110.387 80.7673 110.363 81.0523 110.259 81.312C110.155 81.5718 109.976 81.7945 109.744 81.9515C109.513 82.1084 109.239 82.1925 108.959 82.1928C108.778 82.2013 108.598 82.173 108.428 82.1096C108.258 82.0461 108.103 81.9489 107.972 81.8238C107.841 81.6986 107.737 81.5482 107.666 81.3816C107.594 81.2149 107.558 81.0356 107.558 80.8544ZM109.786 80.8544C109.784 80.6943 109.734 80.5385 109.643 80.4067C109.552 80.2749 109.424 80.1729 109.275 80.1135C109.126 80.0541 108.963 80.04 108.807 80.073C108.65 80.1059 108.506 80.1844 108.394 80.2986C108.282 80.4128 108.206 80.5576 108.175 80.7149C108.145 80.8722 108.162 81.0349 108.224 81.1826C108.286 81.3303 108.39 81.4565 108.523 81.5452C108.657 81.6339 108.813 81.6812 108.973 81.6812C109.082 81.6842 109.19 81.6648 109.291 81.6241C109.392 81.5834 109.484 81.5224 109.56 81.4448C109.636 81.3672 109.696 81.2748 109.735 81.1732C109.774 81.0716 109.791 80.9631 109.786 80.8544Z" fill="#181214"/>
<path d="M110.851 79.5721H112.036C112.217 79.5532 112.401 79.5726 112.574 79.6291C112.748 79.6857 112.907 79.778 113.043 79.9002C113.179 80.0225 113.287 80.1718 113.361 80.3386C113.435 80.5053 113.474 80.6858 113.474 80.8684C113.474 81.0509 113.435 81.2314 113.361 81.3982C113.287 81.565 113.179 81.7143 113.043 81.8365C112.907 81.9587 112.748 82.0511 112.574 82.1076C112.401 82.1641 112.217 82.1836 112.036 82.1647H110.851V79.5721ZM112 81.6742C112.214 81.6742 112.419 81.5893 112.57 81.4382C112.721 81.2871 112.806 81.0821 112.806 80.8684C112.806 80.6547 112.721 80.4497 112.57 80.2986C112.419 80.1475 112.214 80.0626 112 80.0626H111.461V81.6742H112Z" fill="#181214"/>
<path d="M115.931 81.6742V82.1577H113.92V79.5721H115.882V80.0486H114.516V80.6161H115.721V81.0856H114.516V81.6742H115.931Z" fill="#181214"/>
<path d="M126.246 84.8764H82.3186C80.9448 84.8764 79.8311 85.9901 79.8311 87.3639V96.6413C79.8311 98.0151 80.9448 99.1288 82.3186 99.1288H126.246C127.62 99.1288 128.733 98.0151 128.733 96.6413V87.3639C128.733 85.9901 127.62 84.8764 126.246 84.8764Z" fill="#F5F5F5"/>
<path d="M89.7392 92.8855C89.7405 93.1788 89.6803 93.4692 89.5626 93.738C89.4449 94.0067 89.2723 94.2478 89.0558 94.4458C88.8394 94.6438 88.5838 94.7943 88.3057 94.8876C88.0276 94.9809 87.733 95.015 87.4409 94.9876C85.6331 94.9876 84.6731 93.6843 84.6731 91.5261C84.6731 89.1857 85.9133 87.9875 87.7422 87.9875C88.2849 87.964 88.8241 88.0849 89.3048 88.3379L89.1015 88.7443C88.6859 88.5166 88.2156 88.4075 87.7422 88.429C86.1936 88.429 85.1776 89.445 85.1776 91.449C85.1754 91.7257 85.1942 92.0021 85.2337 92.2759C85.3982 91.8349 85.702 91.4595 86.099 91.2066C86.496 90.9537 86.9647 90.8371 87.4339 90.8744C88.8423 90.8254 89.7392 91.6312 89.7392 92.8855ZM89.2347 92.8855C89.2347 91.8975 88.534 91.2598 87.3638 91.2598C87.1288 91.2358 86.8914 91.2598 86.666 91.3306C86.4406 91.4014 86.232 91.5174 86.053 91.6715C85.874 91.8256 85.7282 92.0146 85.6247 92.227C85.5212 92.4393 85.462 92.6705 85.4509 92.9065C85.4509 93.7123 86.1516 94.5251 87.4269 94.5251C87.6583 94.5542 87.8932 94.5333 88.1159 94.4639C88.3386 94.3945 88.5438 94.2782 88.7177 94.1229C88.8917 93.9675 89.0303 93.7767 89.1243 93.5632C89.2183 93.3498 89.2655 93.1187 89.2627 92.8855H89.2347Z" fill="#567EBB"/>
<path d="M98.9254 92.9976H97.4819V94.9105H96.9844V92.9976H93.0535V92.6332L96.8022 88.0086H97.3628L93.6841 92.5492H96.9984V90.8675H97.4819V92.5492H98.9254V92.9976Z" fill="#567EBB"/>
<path d="M106.591 92.9626C106.591 94.1118 105.764 94.9596 104.174 94.9596C103.726 94.9769 103.28 94.9032 102.862 94.743C102.444 94.5828 102.063 94.3395 101.742 94.0277L101.994 93.6423C102.281 93.9247 102.622 94.1456 102.996 94.2914C103.371 94.4372 103.772 94.5048 104.174 94.4901C105.414 94.4901 106.08 93.9016 106.08 92.9626C106.08 92.0237 105.449 91.4351 104.069 91.4351H103.634V91.0707L105.673 88.4571H101.994V87.9806H106.325V88.3309L104.223 90.9866C105.855 91.0497 106.591 91.8415 106.591 92.9626Z" fill="#567EBB"/>
<path d="M114.965 87.9806V88.3309L112.001 94.8825H111.447L114.383 88.429H110.508V89.7534H110.018V87.9806H114.965Z" fill="#567EBB"/>
<path d="M118.468 91.4841C118.468 89.3259 119.582 87.9806 121.166 87.9806C122.749 87.9806 123.87 89.3189 123.87 91.4841C123.87 93.6493 122.756 94.9876 121.166 94.9876C119.575 94.9876 118.468 93.5862 118.468 91.4841ZM123.373 91.4841C123.373 89.5642 122.476 88.4501 121.173 88.4501C119.869 88.4501 118.973 89.5642 118.973 91.4841C118.973 93.4041 119.869 94.5182 121.173 94.5182C122.476 94.5182 123.373 93.376 123.373 91.4841Z" fill="#567EBB"/>
<path d="M268.7 271.93C277.872 268.034 288.495 260.375 293.224 250.979C283.046 255.203 274.462 262.536 268.7 271.93Z" fill="#181214"/>
<path d="M270.655 257.348C279.827 253.459 290.45 245.801 295.179 236.404C284.999 240.622 276.415 247.954 270.655 257.348Z" fill="#181214"/>
<path d="M273.324 243.173C282.504 239.277 293.119 231.618 297.849 222.229C287.67 226.448 279.085 233.779 273.324 243.173Z" fill="#181214"/>
<path d="M276.632 228.332C285.286 223.217 294.934 214.108 298.55 204.172C288.934 209.774 281.285 218.213 276.653 228.332" fill="#181214"/>
<path d="M280.191 216.973C286.498 208.726 292.377 196.45 292.3 185.813C285.29 194.785 281.079 205.623 280.191 216.973Z" fill="#181214"/>
<path d="M278.426 222.376C277.15 211.221 272.82 197.2 265.448 188.833C266.693 200.974 271.175 212.559 278.426 222.376Z" fill="#181214"/>
<path d="M275.462 234.575C273.219 223.077 267.544 208.852 259.177 200.787C261.468 213.309 267.093 224.982 275.462 234.575Z" fill="#181214"/>
<path d="M272.056 249.451C269.821 237.932 264.131 223.728 255.807 215.663C258.097 228.185 263.723 239.858 272.091 249.451" fill="#181214"/>
<path d="M269.323 267.719C267.074 256.22 261.398 241.996 253.039 233.931C255.33 246.453 260.955 258.126 269.323 267.719Z" fill="#181214"/>
<path d="M280.619 214.808C280.585 214.862 280.561 214.921 280.549 214.983C280.5 215.117 280.444 215.285 280.373 215.495C280.219 215.978 280.002 216.644 279.736 217.485C279.182 219.216 278.439 221.731 277.564 224.856C276.688 227.982 275.721 231.716 274.726 235.885C273.731 240.055 272.75 244.672 271.825 249.535C270.9 254.398 270.178 259.065 269.569 263.311C268.959 267.557 268.525 271.397 268.209 274.62C267.894 277.844 267.67 280.464 267.558 282.279C267.501 283.162 267.459 283.856 267.424 284.381C267.424 284.606 267.424 284.781 267.424 284.928C267.415 284.988 267.415 285.05 267.424 285.11C267.446 285.052 267.458 284.99 267.459 284.928C267.459 284.788 267.459 284.606 267.516 284.388C267.565 283.884 267.635 283.19 267.719 282.286C267.873 280.485 268.132 277.872 268.482 274.649C268.833 271.425 269.316 267.599 269.919 263.36C270.522 259.121 271.32 254.468 272.203 249.605C273.086 244.742 274.109 240.139 275.069 235.963C276.029 231.786 276.982 228.052 277.83 224.919C278.678 221.787 279.378 219.265 279.89 217.527L280.465 215.516C280.521 215.306 280.563 215.131 280.605 214.99C280.617 214.931 280.622 214.869 280.619 214.808Z" fill="#181214"/>
<path d="M264.215 277.998C268.104 269.856 270.935 258.378 269.029 249.458C264.68 258.3 263.007 268.219 264.215 277.998Z" fill="#455A64"/>
<path d="M257.762 267.452C261.651 259.303 264.482 247.833 262.569 238.913C258.219 247.754 256.548 257.674 257.762 267.452Z" fill="#455A64"/>
<path d="M251.96 256.725C255.849 248.575 258.68 237.105 256.767 228.185C252.417 237.026 250.746 246.946 251.96 256.725Z" fill="#455A64"/>
<path d="M246.242 245.156C249.136 236.537 250.586 224.779 247.643 216.182C244.379 225.5 243.892 235.566 246.242 245.156Z" fill="#455A64"/>
<path d="M242.493 235.682C242.206 226.51 239.508 215.018 233.812 208.243C233.939 218.045 236.959 227.591 242.493 235.682Z" fill="#455A64"/>
<path d="M244.238 240.23C237.49 233.868 227.232 227.54 218.011 226.713C225.223 233.715 234.351 238.419 244.238 240.23Z" fill="#455A64"/>
<path d="M248.8 249.886C241.239 243.888 230 238.268 220.288 238.247C228.429 244.865 238.353 248.916 248.8 249.886Z" fill="#455A64"/>
<path d="M254.475 261.524C246.915 255.533 235.682 249.907 225.971 249.886C234.11 256.503 244.031 260.553 254.475 261.524Z" fill="#455A64"/>
<path d="M262.4 274.922C254.84 268.924 243.6 263.304 233.889 263.276C242.028 269.899 251.952 273.953 262.4 274.922Z" fill="#455A64"/>
<path d="M241.638 234.022C241.638 234.022 241.638 234.071 241.68 234.169L241.835 234.603L242.465 236.25C243.019 237.651 243.867 239.753 244.939 242.262C247.097 247.3 250.299 254.174 254.272 261.559C256.262 265.238 258.259 268.7 260.123 271.804C261.987 274.908 263.76 277.669 265.28 279.953C266.801 282.237 268.083 284.066 268.952 285.313L269.989 286.715L270.262 287.079C270.325 287.163 270.36 287.205 270.367 287.198C270.345 287.15 270.319 287.103 270.29 287.058L270.045 286.673C269.8 286.315 269.477 285.825 269.064 285.208C268.195 283.94 266.962 282.09 265.483 279.792C264.005 277.493 262.26 274.719 260.396 271.615C258.532 268.51 256.563 265.042 254.573 261.363C250.6 254.048 247.398 247.181 245.163 242.136C244.056 239.627 243.18 237.588 242.591 236.173L241.891 234.547L241.701 234.127C241.684 234.09 241.663 234.055 241.638 234.022Z" fill="#181214"/>
<path d="M245.703 278.986H284.354V286.434H280.381L277.038 307.68H253.144L249.704 286.434H245.703V278.986Z" fill="#567EBB"/>
<path d="M245.703 286.28C245.703 286.182 254.293 286.098 264.888 286.098C275.483 286.098 284.073 286.182 284.073 286.28C284.073 286.378 275.49 286.455 264.888 286.455C254.286 286.455 245.703 286.378 245.703 286.28Z" fill="#181214"/>
<path d="M24.2998 307.692H18.0285L15.7021 279.447H23.0876L24.2998 307.692Z" fill="#181214"/>
<path d="M78.6746 307.692H84.9459L87.2722 279.447H79.8868L78.6746 307.692Z" fill="#181214"/>
<path d="M91.5816 283.027L10.8323 284.919L8.37984 232.766C8.32198 231.556 8.51039 230.347 8.93365 229.212C9.35691 228.077 10.0062 227.039 10.8422 226.163C11.6782 225.286 12.6834 224.588 13.7971 224.112C14.9107 223.635 16.1095 223.39 17.3208 223.39H86.1231C87.3511 223.39 88.5659 223.643 89.6921 224.132C90.8184 224.621 91.8319 225.337 92.6698 226.235C93.5077 227.132 94.152 228.193 94.5627 229.35C94.9734 230.507 95.1416 231.737 95.0571 232.962L91.5816 283.027Z" fill="#567EBB"/>
<path d="M95.7228 232.59H95.4986H94.8329L92.2893 232.633H82.9279C75.024 232.633 64.107 232.562 52.0548 232.843C39.9957 233.242 29.0647 233.172 21.1678 233.053C17.2158 232.99 14.0136 232.913 11.8063 232.843L9.26277 232.759H8.60411C8.52968 232.768 8.45432 232.768 8.37988 232.759H8.60411H9.26277H11.8063L21.1678 232.85C29.0717 232.906 39.9887 232.934 52.0478 232.527C64.107 232.254 75.024 232.38 82.9279 232.436L92.2893 232.513L94.8329 232.548H95.4986L95.7228 232.59Z" fill="#181214"/>
<path d="M37.8304 224.203C36.0154 224.468 34.2494 225 32.5892 225.78C30.9815 226.664 29.5149 227.783 28.2378 229.101C28.4949 228.612 28.8338 228.172 29.2398 227.798C31.1024 225.882 33.5462 224.635 36.1908 224.252C36.7302 224.139 37.2853 224.123 37.8304 224.203Z" fill="#181214"/>
<path d="M71.0438 129.376L80.9097 147.406L95.3442 139.319L102.351 141.639C102.351 141.639 84.6655 160.852 81.7856 161.854C78.9057 162.856 73.4542 163.017 70.3431 159.114C67.5403 155.562 59.2439 136.923 59.2439 136.923L71.0438 129.376Z" fill="#FFBE9D"/>
<path d="M111.678 117.607C111.552 117.451 111.387 117.331 111.201 117.257C111.014 117.184 110.812 117.159 110.613 117.186L103.753 118.111C103.455 118.156 103.17 118.264 102.917 118.428C102.665 118.593 102.45 118.809 102.289 119.064L87.9875 141.031L89.0806 141.641L96.6903 141.403L111.896 117.88L111.678 117.607Z" fill="#181214"/>
<path d="M106.808 120.459C106.863 120.545 106.944 120.613 107.04 120.652C107.135 120.69 107.24 120.698 107.34 120.673C107.44 120.649 107.529 120.594 107.596 120.515C107.663 120.437 107.704 120.34 107.712 120.237C107.721 120.135 107.697 120.032 107.644 119.944C107.591 119.856 107.512 119.787 107.417 119.746C107.323 119.706 107.218 119.696 107.117 119.718C107.017 119.74 106.926 119.793 106.857 119.87C106.777 119.944 106.727 120.045 106.718 120.155C106.708 120.264 106.741 120.372 106.808 120.459Z" fill="white"/>
<path d="M111.896 117.88C111.46 118.002 111.014 118.089 110.564 118.139L106.921 118.707L104.405 119.071C104.192 119.09 103.985 119.157 103.801 119.266C103.617 119.375 103.459 119.524 103.34 119.702L102.527 120.963C101.399 122.694 100.173 124.593 98.8836 126.569C96.284 130.549 93.9156 134.143 92.1778 136.736L90.1107 139.833C89.8704 140.217 89.601 140.583 89.3049 140.926C89.5023 140.513 89.7368 140.119 90.0056 139.749L91.9676 136.624C93.6423 133.989 95.9686 130.374 98.5683 126.394C99.8716 124.411 101.112 122.519 102.24 120.788C102.527 120.36 102.808 119.94 103.074 119.527C103.223 119.312 103.418 119.133 103.645 119.002C103.871 118.871 104.124 118.792 104.384 118.77L106.914 118.448L110.578 118.013C111.013 117.934 111.454 117.889 111.896 117.88Z" fill="#455A64"/>
<path d="M104.264 125.719C104.264 125.719 103.655 125.614 103.318 127.288C102.982 128.963 101.917 133.77 101.917 133.77L98.7078 132.067L94.6857 132.593C94.6857 132.593 93.8098 133.399 94.4545 133.84C95.0991 134.281 97.6357 134.73 97.6357 134.73L99.5066 137.428L94.1322 134.835C94.1322 134.835 92.3384 135.305 92.8639 136.398C93.3894 137.491 97.0121 140.917 97.0121 140.917L94.3213 140.714L91.1401 138.766C91.1401 138.766 90.1592 138.815 90.5235 139.649C90.8879 140.483 94.2232 143.51 94.2232 143.51L98.2593 145.472C98.2593 145.472 100.467 145.297 100.677 144.645C100.819 144.132 100.909 143.606 100.943 143.075C100.943 143.075 102.113 142.76 102.344 142.192C102.473 141.715 102.499 141.216 102.422 140.728C102.422 140.728 104.257 141.05 104.489 140.027C104.649 138.752 104.597 137.459 104.334 136.201C104.152 135.41 105.119 128.087 105.035 127.87C104.951 127.653 105.421 125.235 104.264 125.719Z" fill="#FFBE9D"/>
<path d="M100.782 144.659C100.463 144.85 100.102 144.961 99.7307 144.981C97.9402 145.241 96.1181 144.808 94.6366 143.769C94.083 143.37 93.8098 143.068 93.8448 143.005C93.8798 142.942 95.1971 144.007 97.1591 144.463C99.1211 144.918 100.761 144.533 100.782 144.659Z" fill="#EB996E"/>
<path d="M99.8288 143.208C99.7657 143.3 99.044 142.928 98.2803 142.298C97.5165 141.667 97.012 141.043 97.0891 140.966C97.1661 140.889 97.7898 141.366 98.5465 141.982C99.3033 142.599 99.8919 143.11 99.8288 143.208Z" fill="#EB996E"/>
<path d="M101.952 139.726C101.889 139.817 101.174 139.453 100.459 138.787C99.7447 138.121 99.3243 137.449 99.4083 137.386C99.4924 137.323 100.053 137.855 100.74 138.493C101.426 139.13 102.015 139.628 101.952 139.726Z" fill="#EB996E"/>
<path d="M104.187 136.916C104.075 136.965 103.669 136.215 103.031 135.382C102.393 134.548 101.77 133.98 101.84 133.868C101.91 133.756 102.681 134.246 103.353 135.129C103.814 135.621 104.106 136.247 104.187 136.916Z" fill="#EB996E"/>
<path d="M106.913 266.869C106.966 266.65 106.966 266.422 106.913 266.203C106.799 265.598 106.561 265.023 106.212 264.515C106.098 264.338 105.964 264.176 105.813 264.031C105.714 263.937 105.591 263.872 105.458 263.843C105.324 263.813 105.186 263.82 105.056 263.863C104.98 263.889 104.911 263.933 104.854 263.99C104.796 264.047 104.753 264.116 104.727 264.192C104.678 264.338 104.678 264.495 104.727 264.641C104.822 264.884 104.94 265.119 105.077 265.341C105.336 265.783 105.554 266.217 105.89 266.743C105.988 266.884 106.123 266.996 106.279 267.066C106.436 267.137 106.609 267.163 106.78 267.142C107.093 267.086 107.389 266.957 107.642 266.764C108.106 266.424 108.529 266.031 108.903 265.594C109.083 265.386 109.252 265.169 109.408 264.942C109.578 264.721 109.704 264.468 109.779 264.199C109.821 264.041 109.806 263.873 109.737 263.724C109.668 263.576 109.549 263.456 109.4 263.386C109.262 263.346 109.115 263.341 108.974 263.373C108.833 263.405 108.702 263.472 108.595 263.569C108.274 263.849 107.992 264.169 107.754 264.522C107.401 265.017 107.121 265.559 106.92 266.133C106.828 266.336 106.78 266.555 106.78 266.778C107.112 266.041 107.513 265.337 107.978 264.676C108.216 264.361 108.488 264.074 108.791 263.821C108.952 263.709 109.148 263.632 109.267 263.695C109.337 263.736 109.39 263.799 109.418 263.874C109.446 263.949 109.447 264.032 109.422 264.108C109.349 264.327 109.237 264.531 109.092 264.711C108.945 264.921 108.784 265.124 108.616 265.327C108.253 265.735 107.849 266.103 107.41 266.428C107.205 266.586 106.965 266.691 106.71 266.736C106.605 266.749 106.499 266.732 106.404 266.687C106.308 266.643 106.227 266.572 106.17 266.484C105.897 266.084 105.631 265.587 105.371 265.173C105.252 264.956 105.105 264.746 105.035 264.571C104.965 264.396 105.035 264.255 105.14 264.199C105.442 264.08 105.743 264.424 105.946 264.711C106.402 265.363 106.73 266.095 106.913 266.869Z" fill="#181214"/>
<path d="M89.6966 267.458L81.148 285.991L67.3511 279.615L76.194 256.681L89.6966 267.458Z" fill="#FFBE9D"/>
<path d="M82.7315 284.751L77.7355 294.281C77.7355 294.281 90.5234 307.503 89.3252 310.46L59.2649 296.046L67.5192 276.938L82.7315 284.751Z" fill="#455A64"/>
<path d="M69.0958 288.521C68.7655 288.479 68.4311 288.556 68.1525 288.738C67.8738 288.921 67.6692 289.196 67.5753 289.516C67.5119 289.845 67.5777 290.186 67.7591 290.468C67.9405 290.749 68.2235 290.951 68.5493 291.029C68.9002 291.082 69.2583 291.004 69.5546 290.808C69.8509 290.613 70.0644 290.315 70.1539 289.971C70.1837 289.62 70.0762 289.272 69.854 288.998C69.6318 288.725 69.3123 288.549 68.9627 288.507" fill="#E0E0E0"/>
<g opacity="0.6">
<path d="M59.293 296.046L60.5402 293.65L88.8978 308.365C88.8978 308.365 89.9558 309.584 89.3532 310.467L59.293 296.046Z" fill="white"/>
</g>
<path d="M78.3241 294.358C78.254 294.505 77.4832 294.217 76.5373 294.358C75.5913 294.498 74.9046 294.918 74.7995 294.792C74.6944 294.666 75.3181 293.93 76.4672 293.797C77.6164 293.664 78.4222 294.238 78.3241 294.358Z" fill="#181214"/>
<path d="M80.8537 297.174C80.8537 297.336 80.0619 297.28 79.2701 297.658C78.4783 298.036 78.0158 298.632 77.8687 298.555C77.7215 298.478 78.0299 297.602 79.0319 297.153C80.0339 296.705 80.9168 297.034 80.8537 297.174Z" fill="#181214"/>
<path d="M80.8327 301.806C80.6856 301.806 80.8327 300.944 81.5965 300.321C82.3602 299.697 83.2011 299.704 83.2011 299.858C83.2011 300.012 82.5775 300.237 81.9538 300.755C81.3302 301.274 80.9869 301.862 80.8327 301.806Z" fill="#181214"/>
<path d="M79.7607 290.693C79.6346 290.798 79.06 290.273 78.2052 289.929C77.3503 289.586 76.5725 289.537 76.5585 289.376C76.5445 289.214 77.4134 288.99 78.4154 289.376C79.4174 289.761 79.8869 290.609 79.7607 290.693Z" fill="#181214"/>
<path d="M85.5764 282.277L108.118 225.878C108.118 225.878 107.607 216.25 105.834 213.216C104.061 210.182 50.3729 192.447 50.3729 192.447C50.3729 192.447 36.7022 189.154 27.579 192.447C18.4558 195.74 11.6239 207.162 12.8642 213.468C14.1044 219.775 19.4718 224.448 19.4718 224.448L58.9566 225.625L80.4752 233.473L65.9846 275.004L85.5764 282.277Z" fill="#181214"/>
<path d="M105.624 243.739L106.135 264.136L90.9369 264.515L88.7507 240.032L105.624 243.739Z" fill="#FFBE9D"/>
<path d="M107.039 262.314L106.759 273.07C106.759 273.07 124.066 279.285 124.276 282.474L90.9439 282.81L89.9138 262.02L107.039 262.314Z" fill="#455A64"/>
<path d="M96.4375 271.732C96.1178 271.832 95.8466 272.048 95.6759 272.336C95.5052 272.624 95.447 272.966 95.5126 273.294C95.6017 273.617 95.8111 273.894 96.0978 274.067C96.3845 274.241 96.7268 274.298 97.0541 274.226C97.392 274.118 97.6777 273.888 97.8562 273.582C98.0348 273.275 98.0935 272.913 98.0211 272.566C97.8951 272.237 97.646 271.971 97.3268 271.823C97.0076 271.675 96.6434 271.658 96.3114 271.774" fill="#E0E0E0"/>
<g opacity="0.6">
<path d="M90.9648 282.81L91.0279 280.105L122.966 280.806C122.966 280.806 124.452 281.437 124.297 282.488L90.9648 282.81Z" fill="white"/>
</g>
<path d="M107.298 272.895C107.298 273.056 106.479 273.14 105.687 273.673C104.895 274.205 104.467 274.892 104.32 274.829C104.173 274.766 104.404 273.82 105.378 273.196C106.352 272.573 107.333 272.748 107.298 272.895Z" fill="#181214"/>
<path d="M110.809 274.303C110.851 274.465 110.143 274.745 109.597 275.439C109.05 276.132 108.896 276.84 108.742 276.84C108.588 276.84 108.462 275.915 109.162 275.06C109.863 274.205 110.802 274.149 110.809 274.303Z" fill="#181214"/>
<path d="M112.862 278.473C112.715 278.508 112.483 277.695 112.862 276.798C113.24 275.901 114.032 275.544 114.102 275.677C114.172 275.81 113.703 276.293 113.401 277.029C113.1 277.765 112.995 278.452 112.862 278.473Z" fill="#181214"/>
<path d="M106.962 268.971C106.899 269.118 106.149 268.901 105.231 268.971C104.313 269.041 103.599 269.342 103.508 269.202C103.416 269.062 104.103 268.502 105.189 268.41C106.275 268.319 107.046 268.838 106.962 268.971Z" fill="#181214"/>
<path d="M96.7456 187.094C96.7456 187.094 105.855 186.393 106.864 196.245C107.873 206.097 108.868 252.217 108.868 252.217L87.6364 253.99L84.3431 206.882L50.408 192.447C50.408 192.447 90.6705 185.832 96.7456 187.094Z" fill="#181214"/>
<path d="M59.23 173.766C59.23 173.766 64.7516 189.259 63.7005 190.983C62.6495 192.706 48.4462 199.811 48.4462 199.811L12.8924 213.468C12.8924 213.468 9.2417 207.659 9.2417 198.753C9.2417 189.847 21.6091 173.78 21.6091 173.78L59.23 173.766Z" fill="#181214"/>
<path d="M48.6914 191.683C48.7441 191.719 48.8005 191.75 48.8596 191.774L49.3641 192.006L51.3331 192.881L58.7255 196.105L84.2382 207.085L84.1191 206.924C84.4414 211.576 84.8198 216.6 85.1491 221.8C86.018 233.957 86.8168 245.161 87.4474 254.032V254.193H87.6086L103.108 252.834L107.375 252.434L108.49 252.322L108.868 252.266C108.74 252.255 108.611 252.255 108.483 252.266L107.368 252.336L103.094 252.652L87.5806 253.871L87.7557 254.018C87.1461 245.154 86.3543 233.943 85.5415 221.786C85.1771 216.586 84.8408 211.562 84.4904 206.91V206.798L84.3853 206.748L58.8166 195.888L51.3821 192.776L49.3921 191.957L48.8736 191.753C48.8148 191.725 48.7539 191.702 48.6914 191.683Z" fill="#455A64"/>
<path d="M20.418 193.204C20.7604 193.151 21.0963 193.061 21.42 192.938L24.0967 192.069C27.018 191.082 30.0122 190.325 33.0517 189.805C36.0926 189.309 39.1969 189.349 42.2239 189.924C44.5362 190.408 45.8676 191.067 45.8956 190.99C45.6083 190.795 45.2975 190.637 44.9707 190.52C44.1024 190.155 43.2046 189.864 42.287 189.651C39.2281 188.985 36.0706 188.904 32.9816 189.413C29.9177 189.931 26.9082 190.73 23.9916 191.802C22.8704 192.202 21.9735 192.545 21.3499 192.79C21.0284 192.902 20.7167 193.041 20.418 193.204Z" fill="#455A64"/>
<path d="M25.4419 185.041C26.478 184.977 27.5169 184.977 28.553 185.041C29.513 185.104 30.6551 185.251 31.9164 185.398C33.1777 185.545 34.5721 185.72 36.0155 185.994C38.4853 186.387 40.8526 187.265 42.9805 188.579C43.8297 189.17 44.6374 189.819 45.398 190.52C45.2585 190.274 45.0838 190.05 44.8795 189.854C44.354 189.289 43.7691 188.781 43.1347 188.341C41.0075 186.935 38.6039 186.001 36.0856 185.601C34.6281 185.328 33.2267 185.167 31.9585 185.034C30.6902 184.9 29.541 184.788 28.567 184.76C27.7995 184.726 27.0305 184.759 26.2687 184.858C25.9858 184.879 25.7074 184.941 25.4419 185.041Z" fill="#455A64"/>
<path d="M41.1455 60.5692C37.0604 59.8685 33.4377 61.4451 30.0113 63.7504C26.5044 66.2154 23.8319 69.6905 22.3498 73.7126C20.8676 77.7347 20.6462 82.1129 21.7149 86.2641C22.3067 88.3737 23.3195 90.3417 24.6924 92.0493C26.0653 93.757 27.7697 95.1689 29.703 96.2001C35.0213 98.8978 41.8252 97.9589 46.59 94.3572C51.3548 90.7556 54.0665 84.8066 54.2977 78.8436C54.5184 74.7081 53.4351 70.6077 51.2006 67.1208C50.0678 65.3981 48.5922 63.9273 46.8658 62.8001C45.1394 61.6729 43.1993 60.9135 41.1665 60.5692" fill="#181214"/>
<path d="M29.5137 74.4782C30.1163 72.9086 29.8781 71.1639 30.1163 69.5032C30.6419 65.8525 33.6199 62.9236 36.9832 61.5011C40.1504 60.1768 43.9903 60.4641 47.8302 61.6973C50.4788 62.5001 52.8438 64.0411 54.648 66.1398C55.7962 67.5637 56.5863 69.2421 56.952 71.0343C57.3178 72.8265 57.2485 74.6803 56.7501 76.4402L38.0693 73.7214C36.3176 75.1649 34.5238 76.6434 32.4006 77.4492C31.7886 77.7176 31.1177 77.8238 30.4527 77.7575C30.1214 77.7181 29.8085 77.5841 29.5513 77.3717C29.2941 77.1592 29.1035 76.8772 29.0022 76.5593C28.834 75.8516 29.2545 75.1579 29.5137 74.4782Z" fill="#181214"/>
<path d="M48.2296 66.8545L31.9171 70.316C31.1611 70.3662 30.4509 70.6961 29.9249 71.2415C29.399 71.7869 29.095 72.5086 29.0723 73.266L29.2685 108.575C29.285 110.985 30.0924 113.324 31.5668 115.231L33.1223 117.235C36.6749 121.811 43.8571 121.348 46.5689 116.233C46.7348 115.943 46.862 115.632 46.9473 115.308C46.9963 114.993 47.0804 114.783 47.0944 114.516L47.4097 111.069C47.5639 107.93 47.5919 104.763 47.5919 104.763C47.5919 104.763 54.2696 103.922 56.0004 95.3172C56.8482 91.0429 56.9043 83.9727 56.7641 78.1919C56.617 73.0137 53.4288 66.5112 48.2296 66.8545Z" fill="#FFBE9D"/>
<path d="M54.2625 84.8487C54.2534 85.1374 54.1317 85.4111 53.9236 85.6114C53.7154 85.8117 53.4372 85.9227 53.1484 85.9208C53.0065 85.9273 52.8648 85.9053 52.7317 85.856C52.5985 85.8067 52.4766 85.731 52.3733 85.6336C52.27 85.5362 52.1874 85.419 52.1303 85.2889C52.0733 85.1589 52.043 85.0187 52.0413 84.8767C52.0521 84.5879 52.174 84.3145 52.3816 84.1134C52.5892 83.9124 52.8664 83.7992 53.1554 83.7976C53.2976 83.792 53.4395 83.8149 53.5726 83.865C53.7058 83.9152 53.8276 83.9915 53.9308 84.0894C54.034 84.1874 54.1165 84.3051 54.1735 84.4355C54.2305 84.5659 54.2607 84.7064 54.2625 84.8487Z" fill="#181214"/>
<path d="M55.0756 81.8286C54.9284 81.9688 54.1156 81.3171 52.9174 81.2751C51.7192 81.233 50.8153 81.7936 50.7032 81.6394C50.591 81.4853 50.7872 81.3171 51.1796 81.0578C51.711 80.7165 52.3357 80.5499 52.9664 80.5814C53.586 80.6024 54.1826 80.8209 54.6692 81.205C55.0265 81.5063 55.1456 81.7726 55.0756 81.8286Z" fill="#181214"/>
<path d="M43.5558 84.5753C43.5484 84.8653 43.4276 85.1408 43.2193 85.3426C43.0109 85.5444 42.7317 85.6564 42.4417 85.6544C42.3004 85.6601 42.1594 85.6373 42.0271 85.5876C41.8948 85.5378 41.7737 85.462 41.6712 85.3647C41.5686 85.2673 41.4866 85.1505 41.43 85.0209C41.3734 84.8913 41.3433 84.7518 41.3416 84.6104C41.3489 84.3216 41.4687 84.0472 41.6756 83.8456C41.8824 83.644 42.1598 83.5312 42.4487 83.5313C42.5903 83.5257 42.7316 83.5484 42.8643 83.5981C42.997 83.6478 43.1185 83.7234 43.2216 83.8207C43.3247 83.9179 43.4074 84.0347 43.4648 84.1643C43.5222 84.2939 43.5531 84.4337 43.5558 84.5753Z" fill="#181214"/>
<path d="M43.731 81.5413C43.5839 81.6815 42.7711 81.0228 41.5729 80.9808C40.3747 80.9387 39.4707 81.4993 39.3586 81.3521C39.2465 81.205 39.4427 81.0298 39.8421 80.7635C40.3731 80.4274 40.994 80.2612 41.6219 80.2871C42.244 80.3121 42.8423 80.5327 43.3316 80.9177C43.682 81.212 43.8011 81.4783 43.731 81.5413Z" fill="#181214"/>
<path d="M47.3116 90.6225C47.9509 90.4578 48.6067 90.3661 49.2666 90.3492C49.5749 90.3492 49.8622 90.2791 49.9253 90.0759C49.9613 89.7623 49.9027 89.4451 49.7571 89.165C49.4978 88.4152 49.2246 87.6305 48.9443 86.8036C47.8161 83.4473 47.0173 80.6935 47.1505 80.6514C47.2836 80.6094 48.3137 83.2931 49.4348 86.6495C49.701 87.4763 49.9603 88.2611 50.2056 89.0179C50.3855 89.3933 50.4253 89.8208 50.3177 90.2231C50.2683 90.3283 50.1961 90.4212 50.1065 90.4951C50.0168 90.569 49.9118 90.6221 49.7991 90.6505C49.6286 90.6857 49.4547 90.7022 49.2806 90.6996C48.6238 90.7612 47.9617 90.7353 47.3116 90.6225Z" fill="#181214"/>
<path d="M47.5919 104.798C43.5142 104.705 39.5428 103.479 36.1213 101.259C36.1213 101.259 38.798 107.362 47.4938 106.865L47.5919 104.798Z" fill="#EB996E"/>
<path d="M46.6949 93.4814C46.4787 93.1867 46.1907 92.9522 45.8584 92.8001C45.526 92.6481 45.1603 92.5835 44.796 92.6125C44.5268 92.6267 44.2634 92.6963 44.0223 92.8169C43.7812 92.9374 43.5675 93.1064 43.3946 93.3132C43.2305 93.504 43.128 93.7399 43.1005 93.99C43.073 94.2401 43.1218 94.4927 43.2404 94.7146C43.4244 94.9354 43.6698 95.0965 43.9455 95.1776C44.2212 95.2587 44.5148 95.2561 44.789 95.1701C45.3623 94.9937 45.8939 94.7029 46.3516 94.3152C46.4916 94.2276 46.613 94.1133 46.7089 93.9789C46.7529 93.9124 46.7764 93.8344 46.7764 93.7546C46.7764 93.6749 46.7529 93.5969 46.7089 93.5304" fill="#EB996E"/>
<path d="M43.7661 91.3161C43.9623 91.3161 43.9132 92.6054 44.9853 93.5724C46.0574 94.5394 47.4448 94.4483 47.4518 94.6305C47.4518 94.7075 47.1294 94.8687 46.5479 94.8617C45.7868 94.842 45.0572 94.5541 44.4878 94.0489C43.9465 93.5716 43.6102 92.904 43.5488 92.185C43.4928 91.6174 43.675 91.3021 43.7661 91.3161Z" fill="#181214"/>
<path d="M43.661 77.9958C43.5349 78.3181 42.3437 78.1149 40.9353 78.227C39.5269 78.3391 38.3847 78.6824 38.2095 78.3811C38.1325 78.241 38.3357 77.9397 38.8051 77.6454C39.4275 77.2771 40.1292 77.0632 40.8512 77.0218C41.5682 76.9608 42.2893 77.0737 42.9533 77.3511C43.4929 77.5753 43.7171 77.8416 43.661 77.9958Z" fill="#181214"/>
<path d="M54.9282 76.5943C54.711 76.8606 53.8981 76.5453 52.9101 76.4892C51.9222 76.4332 51.0743 76.6013 50.8921 76.3141C50.808 76.1739 50.9552 75.9076 51.3266 75.6624C51.8295 75.3656 52.4125 75.2333 52.9942 75.284C53.5741 75.3153 54.1299 75.5258 54.5848 75.8866C54.9212 76.1809 55.0263 76.4682 54.9282 76.5943Z" fill="#181214"/>
<path d="M26.5218 71.9557C28.2175 66.9877 35.6309 60.2188 40.8302 60.6883L49.0985 65.8665C48.7976 67.2884 48.1177 68.6025 47.1309 69.6695C46.144 70.7365 44.887 71.5168 43.4928 71.9276C42.0003 72.3481 40.2205 72.4391 39.2886 73.6934C38.3567 74.9477 38.8542 76.8746 37.9923 78.1919C36.7941 80.0278 33.6339 79.8736 32.723 81.8636C32.3306 82.7325 32.5058 83.7836 32.0924 84.6665C31.5458 85.8156 28.5888 87.224 27.3766 86.8176C26.1644 86.4112 26.2064 84.3441 25.8351 83.251C25.3571 82.0214 25.3224 80.6636 25.737 79.4112C26.3396 76.9517 25.7159 74.324 26.5218 71.9557Z" fill="#181214"/>
<path d="M30.9643 87.8897C30.9643 87.2451 30.2635 85.6965 29.6679 85.5704C27.9792 85.241 24.9102 85.2621 24.714 89.5784C24.4477 95.4784 30.4247 94.5254 30.4457 94.3572C30.4668 94.1891 30.8802 90.118 30.9643 87.8897Z" fill="#FFBE9D"/>
<path d="M28.778 92.0449C28.778 92.0449 28.6729 92.108 28.4907 92.178C28.2457 92.2766 27.972 92.2766 27.727 92.178C27.1103 91.9188 26.6339 90.9028 26.6479 89.8447C26.6593 89.3364 26.7813 88.8367 27.0052 88.3802C27.07 88.1988 27.1778 88.0359 27.3194 87.9053C27.4609 87.7747 27.632 87.6804 27.818 87.6305C27.9368 87.6034 28.0613 87.6195 28.1692 87.676C28.2771 87.7325 28.3613 87.8257 28.4066 87.9388C28.4767 88.1069 28.4066 88.2261 28.4697 88.2331C28.5328 88.2401 28.5958 88.142 28.5608 87.8967C28.5387 87.7493 28.4641 87.6149 28.3506 87.5183C28.2728 87.4518 28.1826 87.4014 28.0851 87.3702C27.9877 87.3389 27.885 87.3273 27.783 87.3362C27.5389 87.3746 27.3085 87.4746 27.1136 87.6266C26.9187 87.7786 26.7657 87.9776 26.6689 88.205C26.3966 88.7042 26.2499 89.2621 26.2415 89.8307C26.2415 91.0219 26.781 92.164 27.6429 92.4513C27.799 92.5037 27.9649 92.5208 28.1284 92.5014C28.292 92.4821 28.4492 92.4266 28.5888 92.3392C28.722 92.185 28.778 92.0519 28.778 92.0449Z" fill="#EB996E"/>
<path d="M25.2744 70.4631C25.2744 68.6133 22.9901 67.4081 21.1893 66.9596C19.3519 66.644 17.4625 67.005 15.8709 67.9756C14.925 68.4942 13.972 69.2369 13.7688 70.295C13.5656 71.353 14.5746 72.6143 15.5836 72.2359C15.0905 72.3973 14.6393 72.6661 14.2628 73.023C13.8862 73.3799 13.5936 73.8161 13.4062 74.2998C13.2187 74.7836 13.141 75.303 13.1787 75.8205C13.2164 76.338 13.3686 76.8406 13.6243 77.2921C13.8799 77.7436 14.2326 78.1327 14.657 78.4312C15.0813 78.7298 15.5667 78.9303 16.078 79.0184C16.5893 79.1066 17.1138 79.08 17.6136 78.9407C18.1134 78.8014 18.576 78.5528 18.968 78.2129C18.4561 79.9242 17.3729 81.4082 15.8989 82.4172C17.4236 82.636 18.979 82.4492 20.4085 81.8756C21.838 81.302 23.0911 80.3619 24.0417 79.1499C24.9922 77.9379 25.6066 76.4968 25.823 74.9718C26.0394 73.4468 25.8502 71.8917 25.2744 70.4631Z" fill="#181214"/>
<path d="M21.1683 79.8106C20.9929 79.2368 20.917 78.6372 20.944 78.0378C20.9205 75.1228 21.8781 72.2846 23.6628 69.9797C23.9997 69.4841 24.422 69.0523 24.91 68.7044C23.6777 70.2779 22.6946 72.0314 21.9951 73.9036C20.909 77.0568 21.3014 79.8176 21.1683 79.8106Z" fill="#567EBB"/>
<path d="M47.3748 64.0868C47.9143 66.4902 51.579 69.5663 53.1696 71.4372C56.2247 75.0037 56.8273 76.1879 56.7992 84.169C58.2427 81.4152 59.3498 78.7105 59.2377 75.6064C59.1697 72.462 57.9534 69.4512 55.8183 67.1418C54.7498 66.0151 53.4339 65.1525 51.9745 64.6222C50.5151 64.092 48.9523 63.9087 47.4098 64.0868" fill="#181214"/>
<path d="M72.3968 129.729C72.3968 129.729 66.0344 119.127 64.2686 116.983C62.8508 115.326 61.069 114.019 59.0624 113.164C58.2699 112.822 57.4396 112.575 56.5889 112.428L47.4377 110.403C47.4377 110.403 47.4377 116.647 40.8861 117.032C34.3345 117.417 28.841 108.301 28.841 108.301C28.841 108.301 18.2673 109.941 15.7448 111.244C13.2222 112.548 9.24223 114.194 7.05603 125.118L5.52148 135.825L23.7398 137.507L25.4846 164.582L34.5167 170.888C34.5167 170.888 59.5669 177.398 61.1435 177.825C62.7201 178.253 63.2456 137.521 63.2456 137.521C63.2456 137.521 69.7341 133.38 72.3968 129.729Z" fill="#181214"/>
<path d="M60.4001 125.172C60.5478 125.42 60.6676 125.683 60.7575 125.957C60.9607 126.469 61.227 127.218 61.5213 128.157C63.053 133.077 63.6845 138.233 63.3852 143.377C63.3291 144.358 63.252 145.149 63.1679 145.696C63.1494 145.981 63.1001 146.263 63.0208 146.537C62.9873 146.253 62.9873 145.966 63.0208 145.682C63.0558 145.135 63.0979 144.344 63.1189 143.363C63.1872 140.812 63.0701 138.259 62.7685 135.725C62.4526 133.195 61.9514 130.691 61.269 128.234C61.0098 127.288 60.7785 126.525 60.6104 126.006C60.5111 125.736 60.4407 125.457 60.4001 125.172Z" fill="#455A64"/>
<path d="M59.6083 169.52L25.2737 162.05L23.6901 137.526L8.43579 136.124C8.43579 136.124 9.00336 152.885 9.58495 157.846C10.4328 165.014 14.6651 174.796 17.1456 176.765C19.6261 178.734 61.1148 177.837 61.1148 177.837L59.6083 169.52Z" fill="#FFBE9D"/>
<path d="M79.0949 173.962C78.9808 174.199 78.7983 174.397 78.571 174.529C78.3438 174.661 78.082 174.723 77.8196 174.705C77.7077 174.697 77.5971 174.676 77.4903 174.642C76.7265 174.397 76.7896 172.848 76.7896 172.848L73.1599 172.26C73.1599 172.26 68.4302 175.308 66.7485 177.326C65.0668 179.344 60.7785 177.711 60.7785 177.711L59.293 169.961L65.9847 163.914C65.9847 163.914 65.5783 164.272 66.0408 163.143C66.5032 162.015 68.5983 162.443 68.5983 162.443C68.9277 161.882 70.301 161.686 70.301 161.686L76.173 162.387C76.7695 162.456 77.343 162.658 77.8511 162.978C78.3592 163.298 78.789 163.728 79.1089 164.237L81.5964 168.168C81.5964 168.168 82.9067 170.97 82.6965 171.671C82.6029 171.952 82.4066 172.188 82.1468 172.331C81.887 172.474 81.5828 172.514 81.2951 172.442C81.2951 172.442 81.0078 174.306 80.5173 174.369C80.0163 174.343 79.5245 174.224 79.0669 174.018L79.0949 173.962Z" fill="#FFBE9D"/>
<path d="M66.6155 168.399C66.6155 168.462 67.4003 168.399 68.6545 168.441C70.2833 168.52 71.8936 168.821 73.4404 169.338C74.2918 169.624 75.1189 169.978 75.9138 170.396C76.6145 170.795 77.3573 171.096 77.5885 171.636C77.6407 171.748 77.6624 171.872 77.6513 171.995C77.6402 172.118 77.5968 172.236 77.5255 172.337C77.4192 172.502 77.2653 172.632 77.084 172.708C76.9176 172.766 76.7416 172.792 76.5655 172.785C76.5655 172.785 76.7477 172.946 77.1261 172.848C77.3545 172.786 77.5548 172.648 77.6936 172.456C77.7946 172.328 77.8605 172.176 77.8851 172.015C77.9097 171.854 77.892 171.69 77.8338 171.538C77.6845 171.201 77.4412 170.914 77.1331 170.711C76.8107 170.508 76.4744 170.291 76.103 170.087C75.2983 169.646 74.4566 169.276 73.5875 168.98C72.0074 168.446 70.3505 168.174 68.6826 168.175C67.986 168.14 67.2884 168.216 66.6155 168.399Z" fill="#EB996E"/>
<path d="M66.1948 172.14C66.1948 172.253 68.5912 172.14 71.5272 172.323C74.4631 172.505 76.8175 172.855 76.8385 172.743C76.3486 172.55 75.8347 172.425 75.311 172.372C74.0657 172.16 72.8094 172.02 71.5482 171.951C70.2856 171.881 69.02 171.881 67.7574 171.951C67.2303 171.942 66.7045 172.006 66.1948 172.14Z" fill="#EB996E"/>
<path d="M79.0598 173.815C79.1115 173.611 79.1374 173.402 79.1369 173.192C79.1727 172.618 79.1727 172.042 79.1369 171.468C79.117 171.067 79.0631 170.669 78.9758 170.277C78.8701 169.818 78.6749 169.385 78.4012 169.001C77.8227 168.114 77.075 167.35 76.201 166.752C75.338 166.154 74.3942 165.682 73.3981 165.351C72.5719 165.118 71.7198 164.988 70.8616 164.965C70.1609 164.965 69.5583 164.965 69.1519 164.965C68.9396 164.951 68.7265 164.973 68.5212 165.028C69.2922 165.139 70.069 165.204 70.8476 165.225C71.6795 165.28 72.5023 165.431 73.3 165.673C74.2559 166.022 75.1627 166.493 75.9978 167.075C76.8243 167.654 77.5369 168.381 78.0999 169.219C78.5608 169.9 78.825 170.695 78.8636 171.517C79.0178 172.911 78.9828 173.815 79.0598 173.815Z" fill="#EB996E"/>
<path d="M70.5884 163.165C70.5884 163.221 71.4643 163.249 72.8657 163.41C74.2671 163.571 76.3692 163.711 77.6094 165.575C78.8028 166.966 79.7979 168.515 80.5664 170.179C80.8208 170.893 81.0085 171.63 81.127 172.379C81.1683 172.173 81.1683 171.961 81.127 171.755C81.0911 171.186 80.9755 170.625 80.7836 170.088C80.0733 168.358 79.0865 166.756 77.8617 165.344C77.5346 164.911 77.1531 164.523 76.7266 164.188C76.3059 163.883 75.8299 163.664 75.3251 163.543C74.5119 163.325 73.6783 163.191 72.8376 163.144C72.0897 163.062 71.3347 163.069 70.5884 163.165Z" fill="#EB996E"/>
<path d="M68.0169 176.079C68.1411 176 68.2583 175.911 68.3672 175.812L69.3482 175.02C70.5826 174.061 71.8717 173.174 73.2091 172.365H73.125L76.7547 172.981L76.6286 172.827C76.617 173.126 76.6405 173.424 76.6986 173.717C76.7463 174.044 76.8903 174.349 77.112 174.593C77.2451 174.713 77.411 174.791 77.5885 174.817C77.7576 174.849 77.931 174.849 78.1 174.817C78.4529 174.765 78.7745 174.586 79.0039 174.313C79.0653 174.249 79.1194 174.178 79.1651 174.103L79.2001 174.039L78.9899 174.117L79.1021 174.159C79.2562 174.222 79.4104 174.278 79.5715 174.327C79.7327 174.376 79.8938 174.418 80.069 174.453C80.16 174.46 80.2514 174.46 80.3423 174.453C80.4579 174.46 80.5735 174.438 80.6786 174.39C80.838 174.264 80.9593 174.097 81.029 173.906C81.1031 173.746 81.164 173.579 81.2112 173.409C81.3097 173.071 81.387 172.727 81.4424 172.379L81.2322 172.526C81.4784 172.577 81.7338 172.561 81.9718 172.48C82.2097 172.399 82.4214 172.255 82.5845 172.063C82.7465 171.866 82.8356 171.618 82.8368 171.363C82.8172 171.126 82.775 170.891 82.7107 170.662C82.4356 169.769 82.1008 168.896 81.7087 168.048L80.3843 165.946L79.5435 164.622C79.288 164.158 78.98 163.726 78.6256 163.333C78.2501 162.955 77.802 162.657 77.3082 162.457C76.8271 162.278 76.3214 162.174 75.8087 162.148L70.2802 161.525H70.2381C69.9055 161.578 69.5792 161.665 69.2641 161.784C68.9279 161.885 68.633 162.091 68.4233 162.373L68.6265 162.31C68.3277 162.172 67.9996 162.109 67.6709 162.127C67.3423 162.146 67.0232 162.244 66.7416 162.415C66.2513 162.771 65.9174 163.304 65.8097 163.9L65.8517 163.823L61.2411 167.971L60.0008 169.113C59.8479 169.238 59.7093 169.379 59.5874 169.534C59.7518 169.426 59.9065 169.304 60.0499 169.17L61.3462 168.083L66.0339 164.033H66.0689V163.984C66.1692 163.464 66.462 163.001 66.8888 162.688C67.1297 162.552 67.3997 162.475 67.6764 162.464C67.9531 162.453 68.2284 162.508 68.4794 162.625L68.6055 162.674L68.6826 162.562C68.8653 162.345 69.1097 162.189 69.3833 162.113C69.6762 162.007 69.979 161.929 70.2872 161.882H70.2381L75.7667 162.534C76.2458 162.562 76.7181 162.661 77.1681 162.828C77.6154 163.007 78.0209 163.277 78.3593 163.62C78.6938 163.995 78.9853 164.406 79.2282 164.846L80.069 166.178C80.5245 166.878 80.9729 167.579 81.3933 168.28C81.7832 169.105 82.1134 169.958 82.3813 170.83C82.4433 171.033 82.4833 171.242 82.5005 171.454C82.5043 171.635 82.442 171.812 82.3253 171.951C82.2061 172.091 82.0512 172.195 81.8771 172.253C81.703 172.311 81.5164 172.321 81.3373 172.281H81.1481V172.456C81.0947 172.789 81.0221 173.119 80.9309 173.444C80.8714 173.733 80.7415 174.002 80.5525 174.229C80.5038 174.236 80.4541 174.236 80.4054 174.229H80.1811C80.034 174.229 79.8798 174.159 79.7257 174.117L79.2772 173.962L79.1721 173.92L78.9549 173.997V174.039C78.921 174.099 78.881 174.156 78.8358 174.208C78.6577 174.421 78.409 174.562 78.1351 174.607C78.0034 174.635 77.8673 174.635 77.7357 174.607C77.612 174.595 77.4948 174.546 77.3993 174.467C77.0918 174.023 76.9527 173.484 77.0069 172.946V172.813H76.8808L73.2371 172.246H73.1951H73.1601C71.827 173.08 70.5513 174.002 69.3412 175.006C68.9208 175.364 68.6055 175.651 68.3953 175.847C68.2612 175.91 68.1343 175.988 68.0169 176.079Z" fill="#EB996E"/>
<path d="M123.597 151.421L78.4222 151.792C76.9507 151.792 75.5563 152.493 75.3321 153.943L70.4272 186.876H47.1217C46.7789 186.901 46.4582 187.055 46.2241 187.306C45.99 187.558 45.8599 187.889 45.8599 188.232C45.8599 188.576 45.99 188.907 46.2241 189.158C46.4582 189.41 46.7789 189.563 47.1217 189.588H121.453L126.533 154.833C126.596 154.411 126.568 153.979 126.449 153.569C126.331 153.158 126.125 152.778 125.847 152.454C125.568 152.13 125.223 151.87 124.835 151.692C124.446 151.513 124.024 151.421 123.597 151.421Z" fill="#E0E0E0"/>
<path d="M123.597 151.421C123.832 151.411 124.068 151.435 124.297 151.491C124.899 151.633 125.441 151.958 125.85 152.421C126.259 152.884 126.514 153.462 126.582 154.076C126.599 154.7 126.543 155.323 126.414 155.933L125.762 160.523C124.767 167.425 123.337 177.375 121.558 189.609V189.728H121.439L49.329 189.77H47.388C47.0353 189.804 46.6803 189.736 46.365 189.574C46.1239 189.442 45.9227 189.247 45.7826 189.01C45.6425 188.774 45.5686 188.504 45.5686 188.229C45.5686 187.954 45.6425 187.684 45.7826 187.447C45.9227 187.21 46.1239 187.016 46.365 186.883C46.6814 186.725 47.036 186.66 47.388 186.694H70.3992L70.224 186.848C71.9968 175.056 73.6575 164.054 75.129 154.182C75.1775 153.522 75.4788 152.907 75.9698 152.465C76.46 152.051 77.058 151.786 77.6935 151.701C78.2989 151.642 78.9074 151.621 79.5154 151.638H81.2882L88.092 151.596L100.179 151.519L117.389 151.428H123.583C123.583 151.428 123.45 151.428 123.183 151.428H121.992L117.389 151.491L100.179 151.68L88.092 151.806L81.2882 151.869H79.5154C78.9237 151.858 78.332 151.879 77.7426 151.932C77.1606 152.009 76.6131 152.252 76.166 152.633C75.948 152.829 75.7708 153.066 75.6446 153.33C75.5183 153.595 75.4455 153.882 75.4303 154.175C73.9588 164.047 72.3191 175.049 70.5253 186.841V186.996H47.4021C47.1141 186.959 46.8218 187.008 46.5612 187.136C46.3241 187.272 46.141 187.485 46.0428 187.741C45.9445 187.996 45.9371 188.277 46.0217 188.537C46.1218 188.8 46.31 189.021 46.5542 189.161C46.8175 189.288 47.1112 189.339 47.4021 189.308H49.343L121.453 189.35L121.312 189.469C123.127 177.242 124.599 167.299 125.622 160.397C125.881 158.68 126.112 157.145 126.323 155.821C126.453 155.22 126.516 154.607 126.512 153.992C126.453 153.392 126.211 152.825 125.818 152.368C125.426 151.91 124.902 151.584 124.318 151.435C124.078 151.418 123.837 151.413 123.597 151.421Z" fill="#181214"/>
<path d="M99.0931 172.918C100.656 172.918 101.924 171.651 101.924 170.088C101.924 168.524 100.656 167.257 99.0931 167.257C97.5296 167.257 96.2622 168.524 96.2622 170.088C96.2622 171.651 97.5296 172.918 99.0931 172.918Z" fill="white"/>
<path d="M72.221 189.28C72.284 189.28 73.7205 180.906 75.4302 170.557C77.1399 160.208 78.4783 151.799 78.4152 151.792C78.3521 151.785 76.9087 160.166 75.199 170.515C73.4892 180.864 72.1649 189.273 72.221 189.28Z" fill="#181214"/>
</svg>
